/* XPM */
static char *_0f3ef7bbec84e58935fbb338cc1823e4Ro4vek2Pd2GIUza[] = {
/* columns rows colors chars-per-pixel */
"64 64 196 2 ",
"   c #2A1E1D",
".  c #251A1B",
"X  c #311F1E",
"o  c #2D231D",
"O  c #30271F",
"+  c #332A1F",
"@  c #37311F",
"#  c #3A331F",
"$  c #2D1F20",
"%  c #2F2121",
"&  c #352423",
"*  c #3B2525",
"=  c #362D21",
"-  c #3A2D22",
";  c #3E2728",
":  c #3D2A29",
">  c #3B3321",
",  c #3F3921",
"<  c #422727",
"1  c #422A27",
"2  c #4B2927",
"3  c #432729",
"4  c #442B2B",
"5  c #4B2D2D",
"6  c #522E2E",
"7  c #5A2F2C",
"8  c #423325",
"9  c #4A3627",
"0  c #423B22",
"q  c #4B3C26",
"w  c #453229",
"e  c #4C322B",
"r  c #4C392A",
"t  c #523D27",
"y  c #53332D",
"u  c #5B332F",
"i  c #543C2A",
"p  c #5B3C2C",
"a  c #542F30",
"s  c #563130",
"d  c #5B3331",
"f  c #5E3A31",
"g  c #623C2E",
"h  c #693E2F",
"j  c #643533",
"k  c #6A3634",
"l  c #653A32",
"z  c #6C3A35",
"x  c #673939",
"c  c #6C3A39",
"v  c #703735",
"b  c #733A36",
"n  c #7A3C37",
"m  c #743C39",
"M  c #7C3D39",
"N  c #464222",
"B  c #4B4423",
"V  c #4C4B22",
"C  c #524526",
"Z  c #5A4727",
"A  c #534C25",
"S  c #594C27",
"D  c #534129",
"F  c #5C442B",
"G  c #554928",
"H  c #5E4B29",
"J  c #4F5122",
"K  c #545323",
"L  c #5B5326",
"P  c #555A22",
"I  c #5A5B25",
"U  c #5D5229",
"Y  c #64432C",
"T  c #6C452E",
"R  c #644B2B",
"E  c #6C4C2E",
"W  c #72492F",
"Q  c #605427",
"!  c #615F27",
"~  c #64532B",
"^  c #6A522E",
"/  c #635D28",
"(  c #6C5A2E",
")  c #735E2D",
"_  c #664332",
"`  c #6D4333",
"'  c #6C4B31",
"]  c #734334",
"[  c #7A4334",
"{  c #744B33",
"}  c #7A4A36",
"|  c #75413C",
" . c #7D423C",
".. c #734938",
"X. c #7D4C3A",
"o. c #6B5032",
"O. c #745132",
"+. c #7A5636",
"@. c #735C32",
"#. c #7C5A35",
"$. c #7D5339",
"%. c #5A6322",
"&. c #5D6B22",
"*. c #616425",
"=. c #616D22",
"-. c #656428",
";. c #6C602A",
":. c #696D29",
">. c #71642E",
",. c #766133",
"<. c #7D6035",
"1. c #794540",
"2. c #7D4941",
"3. c #813D37",
"4. c #823F39",
"5. c #824237",
"6. c #804E36",
"7. c #84423C",
"8. c #8B433C",
"9. c #854A3B",
"0. c #8A4C3E",
"q. c #91463E",
"w. c #93483F",
"e. c #84533B",
"r. c #8C553F",
"t. c #845B3B",
"y. c #895B3D",
"u. c #91503F",
"i. c #816636",
"p. c #85633C",
"a. c #854541",
"s. c #8C4641",
"d. c #864943",
"f. c #8D4943",
"g. c #844D48",
"h. c #8D4E48",
"j. c #924741",
"k. c #944A43",
"l. c #9B4D45",
"z. c #954D49",
"x. c #9F4F49",
"c. c #9C4F48",
"v. c #8C5341",
"b. c #8F5843",
"n. c #8E5249",
"m. c #8F594F",
"M. c #935244",
"N. c #9B5247",
"B. c #935A43",
"V. c #985847",
"C. c #96524B",
"Z. c #9E514A",
"A. c #9D524B",
"S. c #9D5A4D",
"D. c #8C5552",
"F. c #9C5651",
"G. c #9E5A55",
"H. c #A04F48",
"J. c #A2514A",
"K. c #A2534D",
"L. c #A2544E",
"P. c #A6554D",
"I. c #A4534C",
"U. c #A9564F",
"Y. c #A9564F",
"T. c #A45A4E",
"R. c #AA5A4F",
"E. c #A75750",
"W. c #A55650",
"Q. c #AA5750",
"!. c #A55953",
"~. c #AA5851",
"^. c #AD5952",
"/. c #AD5B54",
"(. c #AD5952",
"). c #A65D59",
"_. c #AE5E58",
"`. c #B05B54",
"'. c #B15C56",
"]. c #B15D56",
"[. c #B35F58",
"{. c #B15E58",
"}. c #B25F58",
"|. c #856044",
" X c #9D634C",
".X c #AA6054",
"XX c #A5615B",
"oX c #AB605B",
"OX c #B5615B",
"+X c #B9645E",
"@X c #B56761",
"#X c #BB6661",
"$X c #BC6A64",
"%X c #C16C66",
"&X c #C46F6A",
"*X c #C7726C",
/* pixels */
"* 4 a 5 j a a d s s 4 5 d s d j k ` ] |.{ ' y d z  .m k m m m z k c m  .m m d s d 7 7 7 j l v k b k M M j m z k b M m m x x 7 5 ",
"5 5 x d 5 5 5 3 & & $ % a d k j 6 z R :.S q > 1 5 c 8.l b b k 6 x k.j.z d M M b 7 *   X 7 d b v v v 8.4.4.4.d d b 4.4.l._.z.4.b ",
"x f.7.4.j k j 3 ; : & * v 4.4.4.m 7.Y P V B 9 f g.@X{.l.j.4.4.s.J.[.+X(.E.l.a.k 5 5 5 * b j 3.4.4.8.Q.[.I.c.v m c./.[.#X/.Q.I.H.",
"M W.l.!.M 3.b 6 4 5 5 3 n 4.4.q.l.l.T V V V j a.@XOX/.{.l.j.l.H.Y.`.].'.x.M d l k j j 5 3.n 3.4.8.A.{.Q.I.s.j m H.Q.`.{.Q.s.j.Q.",
"8.I.Y.P.7.4.a.m c v x d n 4.s.H.[.H.k.R C g j.~.z.H.H.`.F.7.Q.{.Q.U.H.U.l.c M f.7.M 7.k 4.4.4.j.k.l.(.c.4.n b f./.Q.c.H.m s v l.",
"q.I.~._.l.q.l.c.Z.z.k.| 3.4.k.E.(.U.W.M.[ 7.c.l.M M j.H.W.W.[.(.Q.U.H.U.E.z.c.H.E.L.w.n U.j.j.!.(.c.l.j.4.4.4.l.{.`.{._.a.x 3.l.",
"q.P.OX{.P.J.k.J./.{.{.j.j.H././.^.U.U.Y.Z.I.Q.H.j.4.s.j.I.`.`.Q.^.^.H.l.Q.H.Q.Q.`.Y.q.b `./.k.+X`.J.Y.OXc.q.q.{.OX`.{.`.@XA.OX{.",
"q.P.'.(.(.Q.I./.'.'./.k.l.H.E.^.Q.H.R.`.(.Q.^.^.~.H.E.I.Q.(.`./.^.Q.H.H.I.`.^.^.`.I.w.m `.[.Q.[.(.(.'.OX/.H.H.'.Y.U.`.E.{.OX#XOX",
"w.P.^.`.^.R._.'./.Q.Y.j.l.z.c.(.E.U.^.^.U.H.Q.(.`./.OX^.^.^.^.Q.U.U.I.U.~.OXY.Q.`.P.0.z (.`.[.`.`.(./.(./.Y.(./.P.P./.l.W.+X`.`.",
"H.Y.^.Q.`.(.`.R.B.V.Z.8.k.j.M H.E.I.Q.Q.j.M H.^.Q.`.`.`.^.`.Q.H.q.H.^.^.+XQ.k.U.U.l.R l Q.`.^.^.Q.I.J.Q.Y.(.OXOX+XE.j.k 4.Q.Q.^.",
"f.Y.^.`.[.`.(.T.e.$.N.M 7.j.b l.W.l.H.z.s.j.l.^.`.Q.`.Q.^.^.U.j.q.H.Q.^.(.Q.c.L.w.X.C _ H.[.E.W.L.c.c.P.'.+X.X'.Q.l.b b q.l.Q.Q.",
"M J.^.Q.`.^.R.L.v.v.0.c j b n I.#XQ.j.s.W.H.j.H.Q.^.Q.U.`.^.l.m s.[.[.^.Q.Q.Z.8.5.C y x s.l.j.v m j.'.OX/. Xb.A.!.l.8.7.~.c.U.Q.",
"8.J.(.I.(.(.R.Y.N.8.7.d s k n j./.[.x.x.H.4.k.k.U.Q.Q.k.+X/.k.M l.OX`.Q.Q.I.J.m b y d j m I.a.b m J.OX'.OXy.U 0.{.OXk.8.z.f./.k.",
"f.c.L.7.H./.U.8.[ T n 6 a k d k b M 7.4.k k k.Q.[.Q.H.l./.z.M v f./.Q.L.s.4.m j d p l e j q.8.b 4.c./.P.V.W ' 8.I.(.A.7.a.H.Q.H.",
"j.l.E.L.l.+Xc.8.W Y x * 3 5 5 s s b 4.k 2 d M I.Q.j.8.c 7.M s d k l.l.m k j 5 5 k 6 4 * j 4.4.{ 6._.~.k.7.F T } N.A.7.7.OX{.k.q.",
"* 7 d k  .$.h ] _ y 5 : e y q w y d a & 3 2 3 5 d d m j w w B q u f f i s d w w u > & : c k l Y } 6.X.~ L %.&.I Z Y D S 9.X.z p ",
"5 6 j d z L q r d j d x g.m.@.S ] z 7 * $ $   * a m ).s.i s U V r z T T  .] B h ] p g.D.).C.h.z D p F P %.%.&.P V B q ` ^ H h ] ",
"M z.~.z.N.M.f f a.H.W.{.OX[.T.y.7.b 3.v &   . ; d.@X_.K.7.M Y i n k.l.k.T.N.0.H.L.k.T.Q._.T.Z.n z k 4.Y K &.P , 9 y v Z.X.N.A.k.",
"q.OXOXOXk.1.d k q.E.(.[.`.Q.I.T.l.M j.4.5 : % s Q.#X{.H.A.j.` l 0.P.Q.Y.~.P.P.U.~.L.H.k.l.j.q.4.5.n q.n S J N 8 y b 8.P..X_.l.l.",
"8.P.OX'.%X).M 3.l.[.(.(.`.{.z.f.l.N.z.q.d s ; d '.[.K.Q.OXQ.l.s.J.(.(.(.(./.^.^.(.Y.OX+Xw.8.4.4.8.8.J.N.z r , 9 b 8.J.#X'.Y.L.$X",
"j.Q.[.`.{.}.{.OX[.[.Q.(.(.`.x.W./.x.4.j.4.m a x '.`.`.[.'.^.Q.H.R.^.^.^.^.^.^.^.R.Q.[.[.H.H.U.l.w.k.Y.c.8.l 8 z z.`.%X#X+XR.(.+X",
"q.I./.Q.U.(.+X#X[.[.(.(.(.Q./.[.{.c.M l.c.j.d M [.'.`.'.^./.^.Q.Q.`.^.^.U.`.`.^.`.`.Q.`.^.Q.`.H.H.w.H.J.k.z e  .+X%X*X%X+X`.^.R.",
"j.[./.Q.a.s.Q.'.`.`.(.^.(.^.^.`.I.H.s.4.W.7.k l P.^.^.^.^.Q.Q.^.^.^.^.R.k.H.Q.Q.`.[.`.Q.^.^.`.H.P.P.].].c.b 2 7.{.#X*X+X`.^.^.^.",
"k.'.L.f.m s.l.H.U.^.^.(.(.Q.Q.^.W.Q.W.W.W.4.b l H.^.P.^.P.c.K.'.^.^.^.U.H.q.s.f.c.U.`.`.`.^.^.^.^.`.+X`.Y.f.5 M I.I.[.`.Q.Q.c.H.",
"q.Y.k.M 8.J.c.J.(.(.Y.(.Q.(.(.^.Q./.`.[.Y.z.M m H.Q.I.Q.H.c.K.{.`.^.^.U.(.k.M n w.I.`.^.^.^.^.`.^.^.(.Q.Q.c.d b l.j.P.P.Q.K.s.l.",
"w.{.l.q.c.OX].'.+X'.`.(./.[.[.^./.Q.Q.`.I.`.C.7.E.H.c.W.^.^././.U.^.^.^.^.U.j.4.4.P.`.^.^.^.Q.^.^.^.(.(.(.c.s j M M Q.c.P.H.8.l.",
"k.U.OXJ.k.+X^.`.^.^.R.R.I.c.H.Q.~.r.N.Q.[.U.f.] 4.v 4.M H.K.H.K.H.E.`.`.^.^.H.P.H.Q.^.^.^.^.U.^.^.(./.[.`.H.a 5 1.{.+XH.'.s.4.P.",
"H.J.`.z.8.`.R.R.U.Q.P.H.l.a.!.`.~.r.9.P.Y.j.f.u m q.k.4.j.j.7.c.{.`.[.`.^.^.^.^.R.^.^.^.^.^.^.^.`.[.#X(./.h.3 5 h.$X/.E.K.4.4.P.",
"k.q.k.].R.U.i.>.l.(.^.j.m !.+XQ.B.w.c.Y.s.k v y v k M j.8.l.l.H.R.^.R.Y.U.U.U.^.P.R.R.^.U.U.^.^.^.^.^.^.z.j a c l.W.j.k.v v 4.4.",
"q.q.!.#XJ.l.,.<.T.].Q.H.z.{.`.I.M.M.J.c.4.k k 4 k c l.E.k.j.j.E.`.^.P.c.l.j.l.U.OX/.^.^.H.U.^.Q.`.^.`.^.c.n j M c.H.s.7.b v v 4.",
"J.j.P.Z.+.L.w.w.P.N.M.9.m 8.7.m w.k.0.L.8.4.d ; 3 j j.z.x M 4.j d M l.m 4.8.l.l.w.A.P.P.l.s j j.P.P.I.U.~.z.x s.H.E.M v a k 4.4.",
"s.b a.} H | 8.w.r.#.^ ~ Y k k v n z z 3.M M 6 X 4 a M m v d v j k n b h [ 4.9.j.O.0.J.k.x k b [ f.l.4.l.H.f.d c k.c.M 7 a k 4.n ",
"d s a e w w t ~ *.=.&.%.A e s f t 0 : * 5 5 5 * 5 r p f r w e y i i t C P C L Z *.H E L B y f i A t 1 4 5 4 & 3 u R q q w e k 1 ",
"z.x j d k z 1 B K P &.K r | G.z.b 8 4 : 5 f h.C.XXF.F.).^ ' 7.z t j g i %.P K 9 K q U %.0 1 u 9 0 1 o * 3 3 5 d M { A ] i j n 5 ",
"f.j x 4.8.3.5 4 > B V 0 | oX[.^.k.y 5  .j x 7.l.A.J.c.(.B.z.a.k v 4.b j W P , u b j t K 8 k n l 5 6 6 5 5 5 j 4.Z.T.9.l.7.q.4.n ",
"M d M J.8.M a 6 w 0 , w g.#X^.^.J.l m 7.4.n M q.8.k./.`.H.a.k b 4.8.4.3.5.K y j 7.b u B * k.q.4.k j b k j 5 b q.J.~.k.w.q.w.8.4.",
"4.n n ~.8.4.7.m 7.` w d a.'.{.OX_.8.k.k.8.4.8.l.c.'.+XQ.f.b m a.j.f.3.k.8.F n b 4.b s 1 7 H.P.q.8.7.8.8.3.x M k._.+XOX'.l.I.P./.",
"b 4.4.E.W.q.q.s.W.N.x j 4.Q.OX{.OX'.Y.+XA.n j.Q.$X[.`.(.A.4.4.k._._.a.8.8.5.8.4.k k 5 * M I.Q./.#X{.l.c.8.b k.I.`.[.].'.Y.R./.'.",
"b 4.8.#X[.`.4.z.{.Q.j.x 4.Q.'.^.'.{.Q.[._.f.k.'.[.`.(.H./.j.8.H.OX'.J.w.k.k.n 8.M n 4 & 3.c.Q.`.OX[.I.J.j.3.j.W.(.`.Q.(.`.Q.(.Q.",
"4.j.W.$X`.].z.I.Q./.L.M M l.U.E.Y.(.`.(.Y.l.f.Q.(.`.(.Y.[.Q.k./.'._.`.Y.H.k.q.J.7.b * * j.(.`.z.I.Q.`.Q.a.b 3.H.R.J.`.Q.Q./.(./.",
"8.H.{.+XQ.^.U.(.~.~.W.M v k.E.^.Q./.`.Q.U.k.j.P./.`.Q.^.[.{.H.(./.].`.[.H.k.Q.OXj.M ; * z.`.E.f.c.`.{.Q.4.b s.I.U.J.!.Q.E.Q.(.`.",
"a.}.`.Q.`.^.Q.`._.x.z.x s s.P.'.+XQ.U.U.P.q.l./.`.`.U.z.c.I.Q.Q.(.R.Q.Q.Q.L.OX{.OXz.d & A.c.4.8.c.[.{.z.M 8.W.`.Q.`.z.7.k.H.U.Q.",
"c.Q./.Q.`.`.`.Q.Z.f.a.d 5 n c.^.Q.L.H.c.H.w.k.[.Q.Q.l.M M s.H./.`.Q.Y.Y.Q.Q.f.z.{.c.x 5 A.f.8.j.Q.`.}.W.s.c.[.`.`.Q.4.v q.k.H.U.",
"z.Q.Q.j.L.Q.`.Q.k.4.4.d d 4.j.H.f.7.q.k.8.8.8.E.I.U.l.3.4.M z.E.Y.J.P.Y.I.Q.M 3.I.j.x 4 l.8.7.q.[.Y.{./.W.{.^.U.Q.I.M M q.q./.[.",
"8.I.H.c j.L.[.W.j.8.4.x k 8.k.8.5.z 9.8.q.q.3.m k.l.c.k.l.8.l.Z.J.c.E.H.I.Q.w.j.P.a.3.5 7.q.7.q.Q.l.Q.Q.U.^.H.l.A.l.4.k.H.8.OX/.",
"j.k.4.j j a.E.k.4.3.k a l c M l T E R [ 4.8.j.8.n 7.L.+Xk.7.q.n 7.8.f.c.c.l.q.c.4.M 8.e 4.n w.N.I.l.H.l.k.k.H.H.j.3.j.P.l.n z.Q.",
"l.8.4.k d x k.q.3.c s 5 k b b p i T T l k 4.q.7.7.c.~./.7.| Y.k.q.3.3.4.c.q.q.c.8.8.M 5 4.n 8.L.w.l.j.k.l.l.k.w.8.8._.+Xk.b c.U.",
"s 4.3.d 5 3 a 6 e y 3 X 2 d 7 0 9 u 7 5 u 6 u h ] 2.n.h.y d n v h l l l h j i 6 k m 2 & 2 b 7.` k j 4.3.n m k l k b m n l y b b ",
"5 x j i 4 : 4 w 0 q * . & 5 3 > 4 4 ; 3 5 : * w 5 e F l y a s e q q 9 * q r # & 1 < & * * y Z B e t p u 2 1 < e r y i t e B u 5 ",
"5 a x 8.b l n b s x s.z.x f j x 7.k 5 m d s $ : s.d.M V.V.k.k x 7.S.A.m z f 7 j 8.z.l.7.x 0.` u n h.W.k.j * :  ..XW.M.g u C n k.",
"j m G.(.l.k.q.7.M z._.{.G.A.a.4.E.F.s.M a.n < 3 M 8.s.t.M.Z.7.s.z.s.l.k.z.3.b 7.J.P.J.~.L.(.N.n s.A.OXP. .y 1  ./.(.J.7.7.n l.P.",
"s G._.<.P.H.l.c.E.Q.(././.V.k.W.Q.l.l.z j.8.u 3 j z c.V.[ k.c.Q.J.7.k.k.L.8.k.c.I.Q.Q.(.(.(.t.l.$X_.T.V.l.M s b j.c.Q.c.P.c.#.V.",
"r v.B.-.f._.q.J.~.Y.(.r.A.V.N.P.J.N.q.f.H.7.j 5 5 b z.P.k.N.J.J.l.w.c./.L.J.$.r.P.N.Q.~.~.P.+.d._.h.7.9.N.[ i u 7.N.j.L.L.9.e.e.",
"A E O.K ' A.T.S.p.v.B.( O.{ 0.E.OXr.w.P.k.8.m a y Y 9.E.f.O.B.X.{ T.Y.p.{ T.>.^ { ' V.~.T.{ v.N.V._ M 8.8.k 9 B Y | 7.B.[ { ` ( ",
"V A G F ~ t.y.,.I E E / R R f.(. X( M.Y.] T z p A A Y N.T H s.' R r.i.*.U 9./ L Y W 0.Z.B.K } N.@.H s.N.` e 8 B B F ` e.F p Z &.",
"V K F  .A / ~ P P A B Z P ^ l.T.#.Q w.M.F q u z P V D 0.P Y e.~ A E U P K i Z L L ] 5. .( P Y O.%.Z 7.v.Z 8 8 B B F F o.A B I K ",
"B P H 0.C K A K J B 0 q K ~ 9.b.~ S 7.o.S N w T K V r ] K ` +.P V A A K V q q K P Y b g K K Z K K t z { A 0 # N V S C L A B I V ",
"B %.P ] K B N N V B 0 0 B B U K A 0 p L V 0 > B B B B i B ` ( J V N N J B B 0 V B B 8 0 B K N V 0 q t A V , > N V A B V D B B q ",
"V V J A V V > , 0 i q 0 > , P K V , N # N > = N N N B V B t V N V N N 0 D p , , V V N 0 # V N V , , N N N @ O N V B V 0 B B c l ",
"0 B K P V J , > > u q > > # J V N , N o > > o N N 0 N B N 0 N 0 N N V N A p 0 # V B N , > V N N > N N > > + + # N B N > N 0 d._ ",
"O N V N N 0 , + = > 0 > > : 0 0 > > > @ # O o # # 0 N > # 0 N # > , 0 N J , # # 0 w > = , , N N , > > = # O O @ > 0 0 , , , w N ",
"o 0 N 0 N > , , = > > > > : 0 , > + > = # o o O # + , > + > > + > , , # V 0 - 0 > 8 > & > > 0 0 = = = > = o o + > > > = @ > > 0 ",
"o + > = @ o = @ = , = % = > > - = O O # + o + = + o = o = O o > = > - 0 0 + O @ > 0 > O = > @ > = O O = O o O o O = o + + O > = ",
"o @ > > # # = = > , = = > > > = = > , > o O @ > > # + o > = = > # > > # B = + 0 , 0 # # # > = > = = = = o O = = > @ + # = = 0 + "
};
