/* XPM */
static char *_25cca859c094ddef937e6112865f090kYbYE8brf8dHIquJ[] = {
/* columns rows colors chars-per-pixel */
"64 64 220 2 ",
"   c #000000",
".  c #0C0806",
"X  c #140C0B",
"o  c #1D0E0D",
"O  c #18140E",
"+  c #241616",
"@  c #2B1D1D",
"#  c #281815",
"$  c #321E1E",
"%  c #391E1C",
"&  c #2C231D",
"*  c #2B2016",
"=  c #30271F",
"-  c #3D211C",
";  c #332A1F",
":  c #37311F",
">  c #3A331F",
",  c #2F351B",
"<  c #2E2021",
"1  c #352323",
"2  c #3B2524",
"3  c #362D21",
"4  c #3A2D23",
"5  c #3D2A29",
"6  c #3D2728",
"7  c #3B3321",
"8  c #3F3922",
"9  c #3E3629",
"0  c #46221F",
"q  c #452524",
"w  c #4A2624",
"e  c #422926",
"r  c #4C2A26",
"t  c #432729",
"y  c #442B2B",
"u  c #4B2D2C",
"i  c #532A25",
"p  c #532D2B",
"a  c #5B2D2B",
"s  c #423325",
"d  c #4B3627",
"f  c #423B22",
"g  c #4B3C26",
"h  c #453229",
"j  c #4C322C",
"k  c #453A2A",
"l  c #4C3A2A",
"z  c #503B26",
"x  c #53332D",
"c  c #5B322E",
"v  c #533C2A",
"b  c #5B3C2C",
"n  c #542F30",
"m  c #4D3C30",
"M  c #563130",
"N  c #5B3331",
"B  c #5D3C31",
"V  c #622F2A",
"C  c #64322D",
"Z  c #6B332E",
"A  c #623D2E",
"S  c #6B3C2F",
"D  c #71362F",
"F  c #643433",
"G  c #6A3634",
"H  c #653A32",
"J  c #6C3A34",
"K  c #6D3A39",
"L  c #723733",
"P  c #733A35",
"I  c #7B3C36",
"U  c #743C39",
"Y  c #7B3E39",
"T  c #3D4224",
"R  c #3F4A26",
"E  c #454222",
"W  c #4B4424",
"Q  c #424C26",
"!  c #4C4B22",
"~  c #45432A",
"^  c #4D432C",
"/  c #444B29",
"(  c #4D4C2C",
")  c #524526",
"_  c #5A4727",
"`  c #534B25",
"'  c #594B27",
"]  c #53432B",
"[  c #5B442B",
"{  c #534B2D",
"}  c #5D4B29",
"|  c #4F5122",
" . c #46522A",
".. c #4C522C",
"X. c #49582B",
"o. c #545323",
"O. c #5B5326",
"+. c #555A22",
"@. c #5A5B25",
"#. c #53522E",
"$. c #5D5228",
"%. c #525A2E",
"&. c #4B4B30",
"*. c #564430",
"=. c #5D4433",
"-. c #554C32",
";. c #5C4C32",
":. c #4E5130",
">. c #4D5930",
",. c #5B5333",
"<. c #525B31",
"1. c #565833",
"2. c #64432D",
"3. c #6C452E",
"4. c #644B2B",
"5. c #6C4C2E",
"6. c #72492F",
"7. c #605427",
"8. c #64532B",
"9. c #6A522E",
"0. c #635D28",
"q. c #685C2B",
"w. c #735E2D",
"e. c #654433",
"r. c #6C4333",
"t. c #634C34",
"y. c #6B4C33",
"u. c #6A4139",
"i. c #654B38",
"p. c #6C4E3A",
"a. c #734334",
"s. c #7B4335",
"d. c #744B33",
"f. c #7A4A36",
"g. c #75423B",
"h. c #7D423C",
"j. c #754B3A",
"k. c #7C4C3B",
"l. c #645235",
"z. c #6A5336",
"x. c #6C5239",
"c. c #66573A",
"v. c #745132",
"b. c #735C32",
"n. c #7C5A35",
"m. c #73513B",
"M. c #7C523B",
"N. c #7A5739",
"B. c #5A6322",
"V. c #5D6B22",
"C. c #576535",
"Z. c #646526",
"A. c #71642E",
"S. c #7D6035",
"D. c #766133",
"F. c #7E4C41",
"G. c #794540",
"H. c #7E5541",
"J. c #803E37",
"K. c #823F39",
"L. c #824237",
"P. c #84423C",
"I. c #8B433C",
"U. c #854A3B",
"Y. c #8A4B3E",
"T. c #91463E",
"R. c #93483F",
"E. c #84533B",
"W. c #8C553F",
"Q. c #895B3D",
"!. c #835C3A",
"~. c #91503F",
"^. c #84643A",
"/. c #854541",
"(. c #8C4641",
"). c #854C42",
"_. c #8C4A43",
"`. c #844D48",
"'. c #8D4E48",
"]. c #924741",
"[. c #944A43",
"{. c #9B4D45",
"}. c #944D49",
"|. c #9C4F48",
" X c #845241",
".X c #8C5342",
"XX c #8D5549",
"oX c #895A47",
"OX c #935244",
"+X c #9B5247",
"@X c #935A43",
"#X c #95534A",
"$X c #9D524B",
"%X c #9D5A4E",
"&X c #9B5651",
"*X c #9E5A55",
"=X c #8C5552",
"-X c #A04F48",
";X c #A4534C",
":X c #A9564F",
">X c #A4594E",
",X c #AA5A4F",
"<X c #A55650",
"1X c #AA5750",
"2X c #A55953",
"3X c #AD5952",
"4X c #A65D59",
"5X c #AE5E59",
"6X c #B15D56",
"7X c #B25F58",
"8X c #9D634C",
"9X c #A96059",
"0X c #B5615B",
"qX c #B9645E",
"wX c #B56761",
"eX c #BB6761",
"rX c #BC6A64",
"tX c #C16C66",
"yX c #C46F6A",
"uX c #C7726C",
/* pixels */
"2 y ( M B m M N M B &.u N N N F G J y.X.y.a.j N K Y U G P H *.G F F *.H F F r u p w p p % a p <.q a p w 0 a ( 8 i i d >.j q q 2 ",
"u k ( N l k u 5 1 9 R < u N L F p J 4.+.<.g s s u K I.F P J -.j F (.;.v n I G V r 1 + + q q i  .d C C a i v / 4 p Z i { ] G V a ",
"K j.~ P.c { F t 5 9 / 5 G K.I.J.I P.2.@.Q >.^ N `.wX7X{.T.L.t.h.<X%Xc.{ <X(.U a t $ % @ a i V d #.q L.h.e.( h p L /.G i.e./.F P.",
"U M...2XJ ..P x y h 9 y P K.I.I.{.[.3.! E T ..;.0X0X3X0X|.L.;.XX3XOX( m.|.U n a q w i 2 V a i C R ] g.=.:.g q r G P.P.{ H G P I ",
"(.k./ :Xr.Q u.U G H ] u I K.(.|.6X-X[.4.) b ]  .1.i.p.H.j.] -. X.XW.,.oX|.J Y (.U F a w Z w L L r v E *.k e i V Y }.P.<.x 2 a Z ",
"T.}./ %X].( _.}.$X X:.H J.K.}.1X6X:X>XOXs.L.(.{ l H I.[.k...z.>X@Xi./ i. X).].;X<X$XI C F C e.p.d b g b b i V a K (.).>.K q V L.",
"T.;X .oX:Xy.[.;X3XXX-.g.].;X3X1X3X:X:X:X;X;X:X/.(.J.I.].i. .M.3X1X;X*.[ :.>.>.1.m.m.t.#.%.....B Y G J i.[ V I h.h.}.}.,.G.U g.'.",
"T.:X{ C.:Xt.:X3X6XXX,.P.{.-X1X3X1X-X,X3X3X3X3X1X1X;X<X;X( { #X3X3X;X;.k.e.&.-.j.;X+XP.[ [ g H h._.C g.g.#.b P J c Y F.H.u.#XU _.",
"R.:Xl.%.#X,.3X0X5X#Xj.Y.}.{.|.1X1X;X3X3X:X;X,X3X3X9X0X9X/ i.1X1X<X;Xx.N.#Xe.h.#X3X;XI.e.r.U g.P._.J /.h.#.%.i.U G P.].i.r '.).h.",
"|.;XH.^ / } 3X,X@X@XE.I.[.].I ;X:X;X1X1X(.Y -X3X,X3X3XH.Q ).1X-XT.|.p.c.eX;X{.:X;X+X4.H :X3XP _.Y g.(.(.b E  .%.l.r.L u C P./.G ",
"_.:X>X).{ ] :X>X!.N.[.h.K.].P [.:X{.$X|.(.].{.1X3X,XH.>.E OX<X].(.{.m.M.3X1X|.;X].k.] e.-X0X}.(.P J.Y P.J v a.;./ <.:.^ A c P.P.",
"Y $X3X3Xj., l.W..XY.Y.K G P I <XeX<X].I.;X-X].;X3X XC.8  X$X{.I (.7XH.$X3X2X-X/.L.) x H (.{.].a N [.6X9X'.j.j.Y.H E ^ [ [ k  .>.",
"I.;X6X;X1.f T ( c.f.L.N M G Y ].5X7X$X;X[.I.].{. Xc.&.H 0X3X[.U {.wX}.1X:X;X-XP L N F F P :X/.G a $X0X7X9XN._ U.}.=.J P ].J k T ",
"_.|.;Xa.R OXa.b Q  .#.k M H N G P Y Y J.K e.U.x.@X3Xe.).2X|.h.P ].2X1X;X].Y U F M b G u F I.I.P L {.$X|.+X6.5.I.;X3X+XI.Y }.H 7 ",
"[.{.<X). .0X[.L.E Q ~ 3 9 m l l ] t.c.{ >.( e.}.1X[.P.J P.I N N L }.{.U G F u u G p y 1 F K.J.d.f.g.$X].P.[ 3.f.+X$XP.I.0X0XI.J ",
"2 n N E / M.S r.l k y 5 u l g h j x j 9 9 5 t u N N P F h h W g x B B b M N k h x 9 3 6 K K H 2.f.A k.8.$.B.V.+.' 2.W ' U.f.J b ",
"r p v l l ' W v N F n F `.=Xb.' a.J p 6 & @ @ 1 n U 4X/.M N $.! v J 3.S h.j.! Z a.b `.=X4X&X.XJ [ d 2.o.B.B.V.+.! W d r.9.} S a.",
"r.&.l.|.$XXXN N I.-X<X7X0X0X>X^.I.P J.G 1 @ @ y /.wX5X;XP.h.2.b I R.|.[.:XOXU.-X$X[.:X<X3X<X$XI S c L.2.o.V.+.8 d x L |.M.+X$X[.",
"( R %X0X[.G.N G K.3X3X6X6X:X:X>X}.Y T.I.u 6 < n 1XeX6X-X$X].a.H Y.;X,X:X,X:X;X3X3X:X-X[.{.[.K.K.J.S I.I _ | E 8 x J I.:X9X5X{.{.",
"^ g.0X7XrX4XJ.P.-X7X3X3X6X6X}.(.{.$X{.I.N n 5 N 6X6X:X1X0X<X[./.;X1X3X3X3X,X3X3X3X:X0XwXT.I.T.K.I.I -X-XG l 8 d P I.;XeX6X:X;XrX",
"g.1X7X3X7X0X7X0X7X7X3X3X3X6X-X<X2X<XY ].K.U n K 6X3X6X0X6X3X:X$X,X3X3X3X3X3X3X3X1X:X0X0X;X{.:X{.R.L.2X|.I.H s K {.6XtXtXqX,X3X0X",
"T.<X3X3X:X3X0XeX7X7X3X3X3X3X3X7X6X|.Y ].|.[.n Y 6X3X6X3X3X3X3X1X3X3X3X3X;X6X6X3X3X5X3X3X3X,X3X-X{.J.{.$X[.J j P.0XtXyXtXqX3X3X3X",
"T.0X6X1X/./.3X6X3X6X3X3X1X3X3X3X:X-XI.T.2Xh.L F :X3X3X3X3X1X1X1X3X3X3X3X[.-X1X1X3X7X6X,X3X3X6X|.;X(.3X3X|.P u h.6XeXyXqX6X3X3X3X",
"R.6X;X_.U I.{.-X:X1X3X3X3X3X3X3X;X1X;X1X2XP.P F -X3X:X1X:X-X;X6X3X3X3X;X-XT.(.].-X:X3X3X3X3X1X].6X{.7X;X:X(.p Y ;X;X7X3X,X,X-X-X",
"T.:X[.Y I.;X{.|.,X3X,X1X1X3X3X1X1X3X6X0X:X}.U I -X1X;X1X;X|.$X7X3X3X3X:X3XR.J.I T.-X3X3X3X3X1X/.1X}.1X}.3X|.N U {.].;X:X1X;X(.}.",
"[.6X{.T.-X0X0X6XqX6X3X6X3X7X7X3X3X3X3X1X:X5X#XP.<X-X|.;X1X1X3X3X1X1X3X3X3X:XK.K.T.;X3X3X3X3X|.{.3X{.1X}.|.|.N F Y Y 3X{.1X|.K.{.",
"].;X0X;X[.qX,X3X3X3X,X:X1X{.-X1X3XW.OX1X6X:X_.U P.P K.U -X:X$X;X-X:X6X3X3X3X:X:X-X3X1X3X1X1XJ.,X1XU <X}./.|.n t h.5XwX-X3X].K.1X",
"-X;X3X|.I.3X,X,X:X:X;X;X{./.<X7X:XW.U.:X:X{.I.M P I.[.I.(.].P.|.6X6X7X6X3X3X3X3X:X3X3X3X3X;XI.3XL X Y }.G./.t u '.rX3X1X;XK.K.:X",
"[.T.[.6X1X:X^.A.{.3X,X].U 2X7X3X@X~.|.:XP.G P x L G Y ].I.{.{.-X,X6X,X:X:X3X1X3X:X,X3X3X1X[.P.|.o   w Y a a n K {.;X].}.L P K.K.",
"T.T.2XeX;X{.S.n.,X7X,X;X}.5X3X<XOX[.;X$XP.G G y G G |.;X}.].].1X3X,X:X-X{.K.{.1X7X3X3X3X;XI._.Z .   0 F G G F Y |.;XI.K.P G L K.",
";X].:X;XN.$X[.[.;X+X~.L.U I.I.L R.[.Y.;XK.K.F 6 t F }.}.G Y K.F a Y R.a.K.I.-X{.R.+X:X:X[.u w # .   X i Y K.G I.;X;XY K n G K.K.",
"/.P P.f._ s.U.].W.n.9.9.2.G G K I J J J.J.Y p < y n U Y G N L F G I I D s.I.T.K.v.Y.;X_.K F # - .   X - N (.M K }.|.Y a N G K.P ",
"N n n j h h v 8.Z.V.V.B.` j M N ] f 6 2 u j y 2 y l b B l h u z v v v ) @.) o._ Z.} 9.O.g z p * .   . + t t 1 t c 4.g g s j F y ",
"}.K N N F J y W +.+.V.| g g.4X|.P s y 6 y F '.#X9X&X%X9Xl.r./.J v F b v B.+.o.d ` v O.B.s y x + O X X + y y u N Y d.` a.b C I u ",
"[.F G P.I.J.u y s E W k u.9X6X3X].x u G.F G P.{.&X-X|.3XOX+X/.G L K.P C d.+.f c J F v +.s H L % @ p 1 = t u G K.$X>XU.{.P.I.J.I ",
"Y N Y -XT.Y n p h f f h /.tX3X3X$XJ U (.J.Y Y T.T.[.3X3X;XP.G P P.I.L.J.L.O.j F L.P c W 2 [.I D i N a i p u P K.-X3X[.[.T.T.I.I.",
"K.P Y 3XI./.K.U P.r.h M /.5X7XqX3XI.].[.I.K.I.|.|.6XqX1X(.P U /.].(.K.[.I.2.I P K.G N y p |.}.L K.K.I Z L F K.{.3XqX0X6X{.:X;X3X",
"P K.K.1X<XI.T.I.3X+XG F Y 1X7X7X0X0X:XqX$XY T.1XeX7X6X1X;XY K.[.5X7XP.I.I.s.I.I G L u 2 Y ;X:Xh.&X7XI.K.(.P ].<X6X7X7X6X:X3X3X5X",
"P K.I.eX6X3XK.}.7X3X_.K K.1X6X1X6X7X1X0X5X(.].6X7X3X6X-X1X].(.-X0X6X;XI.[.[.I I.I I y 1 K.-X3X<X<X7X[.{.].K.(.;X3X6X,X3X3X3X3X<X",
"K.(.<XrX6X7X|.;X1X2X;XI Y {.1X1X:X3X6X1X1X{.].:X6X6X3X;X7X1X{.3X5X6X6X:X-X[.(.:XP.P 2 2 R.3X3X|.|.1X1X2X/.P K.-X:X;X3X3X1X3X3X6X",
"I.-X7X7X6X3X:X3X3X2X:XY K [.1X1X1X3X6X1X:X{.].;X3X6X1X3X7X5X-X3X6X6X6X6X$X[.:X0X_.U 2 2 |.3X<X(.{.3X7X1Xh.L (.-X:X;X3X<X1X3X3X7X",
"/.7X6X1X1X3X3X6X5X-X{.F n (.:X6XqX1X,X;X;XT.{.3X1X6X:X{.{.;X1X1X3X,X1X1X:X;X0X0X0X|.M 6 $X|.h.I.{.7X7X}.Y T.1X3X1X3X}.K.[.{.-X1X",
"|.1X3X1X6X3X3X3X|._./.N n Y {.1X1X;X-X-X|.T.[.7X6X1X{.Y Y (.;X1X3X:X:X:X:X:X_.}.7X|.K y $X].I.].3X7XqX;X(.{.7X6X6X,XK.P T.].-X1X",
"|.<X1X[.-X1X3X:X}.K.K.F N K.].|./.P.].[.I.I.T.<X;X;X|.K.Y Y }.1X:X;X:X:X:X:XY J.;X[.G y }.I.I.].7X1X7X3X2X7X1X:X1X;XY I K.T.7X7X",
"P.;X-XK {.-X7X1X[.K.K.F G I.].I.P.P U.I.T.I.J.P [.|.|.[.{.I.{.$X;X|.<X;X:X:XR.[.;X(.Y u K.T.P.I.1X{.1X1X,X1X-X-X-X[.L.].-XI.wX1X",
"].].I.F F /.2X[.K.K.G n F G h.H 2.5.} s.K.T.].I.Y L.;X0X].P.].Y P.I.I.|.{.{.T.|.K.U I.x J.J.T.-X-X{.-X{.R.[.-X-X[.K._.:X-XK.{.1X",
"{.K.K.G M G [.T.L.K n y G P P b b 5.3.J G I.T.I.I.{.3X6XP.G.1X].T.K.J.Y {.T.T.|.K.(.I u J.I I.;X{.[.].].|.|.[.T.T.K.5XeX{.P |.:X",
"F K.Y N u y n n j x 5 1 r F M f d a p y c u c S K F.XX(.x N I J A F S J H H x x P U u $ p P h.r.G G K.Y I U G F G I U Y F j P L ",
"u K F v y 6 y h f k 1 @ 1 y y 9 y u 6 5 u 5 2 h h j =.b v x n x g g s 6 g ] 4 3 6 t $ t 2 x _ ) u z b c r y t j l x v ] j ) x u ",
"u u K (.J J I U N F (.}.H B F F K.K u P F n < 6 _.(.Y +X$X[.G F ).>X$XP H N a F I.{.}.P.K I.3.x I '.>X_.F 6 2 G.4X3X[.A c W I [.",
"F g.*X2X|.[.I.I.P.}.2X6X<X$X/.I.;X&X_.Y /.Y q t J.P./.Q.OX-XL._.[.(.[.[.|.K.L P.;X;X$X2X<X3X+XI (.+XqX:XL.p u h.3X,X;XL.I.s.+X;X",
"M *X3X!.;X-X{.|.:X3X6X3X2X#X}.<X1X{.{.G [.K.F 6 N J ;X+Xs.[.|.:X-XI.{.[.;XP.[.$X;X:X3X3X3X3XQ.[.rX0X>XOX}.Y p P I.-X3X|.;X|.n.+X",
"l '.@XZ._.3XR.$X3X:X>XW.$X+X+X<X;X{.T._.|.I.F u p U }.:XR.+X;X$X[.R.{.3X;X;XN.U.:X+X:X:X:X;XN.Y.4XOXP.U.+Xs.x b P.|.[.;X;XU.E.E.",
"` 5.v.o.y.$X>X%Xn..X@XA.v.d.U.2X0XW.T.:XT.T.U n M _ U.:XR.v.OXk.f.>X2X^.f.:XA.9.d.5.+X3X%Xv.W.+X+Xe.Y ].I.G d W 2.a.L.@Xg.6.r.w.",
"! ` _ [ 8.n..XD.@.z.5.0.} 5.R.3X8Xq.OX:Xa.r.J b ` ` e.$X5.} ).v.4..X^.Z.O.k.0.O.} a.U.;X@XO.f.+XD.} I.+Xr.d e E ] [ r.E.[ [ [ B.",
"! | { P.' Z.8.@.o.` g _ @.9.+X>Xn.7.R.OX} g x J +.! ] U.o.2.U.8.' 4.$.+.o.b _ O.O.d.L.h.9.+.4.v.B.[ U.).[ s 8 ! W _ v z.` ) o.+.",
"! +.7.I.W O.` ` o.W f z o.8.E.W.8._ s.v.` E h 3.o.! z a.o.r.n.o.! ` ` o.! g g | +.2.P A ! +._ ' +.z r.d.` f > ! ! { ) O.` W +.! ",
"W B.O.a.o.! E E W ! f f W W $.O.| g A O.! f 7 E W W W v ) r.q.! ! E E | ! g f | W g g f ! | W ! 8 d v ' ! > > E o.` W ! ) W ) g ",
"W ! | ` ! W 8 8 f b d > 8 8 +.+.! > E 7 E 8 1 E E E E ! W g ! ! ! E E f ) A f f ! ! E f > ! E ! 8 f f E W : = T ! W ! f ! g J H ",
"f E +.+.! | 8 7 s z g 8 4 8 ! E E 8 E & 7 7 = E E f E ! f g E f E E ! E ` b > > ! E W 8 > ! E f > E f 7 8 ; = 8 f W E > E k Y.e.",
"= E E ! W f > ; ; > f 7 4 5 f f 7 7 7 : > = & > > > W 7 8 f 8 > > f > f | f : > s s 7 = f f W E 8 8 7 7 7 = = ; 7 f f > > 8 h E ",
"& E E > f 8 E > 4 4 8 7 8 5 f 8 7 ; 7 3 > = & = > ; f 7 ; 7 > ; 7 8 f f ! f : f 9 s 7 3 7 8 > f ; ; 3 : : & * 3 7 7 8 3 : > > f ",
"= ; 7 7 ; & 7 ; > 8 3 = 3 8 8 3 3 = = > = & = 3 ; = ; & 3 = = 7 3 7 4 f f : & : 7 f 7 = ; 7 ; 7 4 = = 4 = & = & = 3 & ; ; = > 4 ",
"& ; 7 > 8 > ; 3 7 7 3 & 7 7 4 3 3 7 8 > & = > > > : ; = 7 ; 3 > > 7 7 > E : ; s 8 f > > > 7 7 8 = 3 ; = & = 3 3 7 : ; > 4 ; f ; "
};
