/* XPM */
static char *a16b6fd21aa64bc5bb3a8d5e908b97449Bf5IEbMYQJL5pti[] = {
/* columns rows colors chars-per-pixel */
"64 64 178 2 ",
"   c #010101",
".  c #0B0606",
"X  c #0C0805",
"o  c #0C0909",
"O  c #120A0A",
"+  c #12100A",
"@  c #18120E",
"#  c #1A0F10",
"$  c #1C1313",
"%  c #1F1815",
"&  c #21120F",
"*  c #231616",
"=  c #2B1715",
"-  c #231D16",
";  c #2E1916",
":  c #211718",
">  c #251C19",
",  c #2B1C1C",
"<  c #331D1C",
"1  c #3B1E1D",
"2  c #272017",
"3  c #292317",
"4  c #242816",
"5  c #272118",
"6  c #2B2419",
"7  c #2E2919",
"8  c #33251E",
"9  c #3D211E",
"0  c #322C1B",
"q  c #3B2D1E",
"w  c #2F321C",
"e  c #35331A",
"r  c #3B341C",
"t  c #343B1E",
"y  c #3C3B1B",
"u  c #2D1F20",
"i  c #321F20",
"p  c #2F2820",
"a  c #352221",
"s  c #3C2422",
"d  c #352B21",
"f  c #3C2B21",
"g  c #333421",
"h  c #3C3322",
"j  c #353B21",
"k  c #3B3B22",
"l  c #44221F",
"z  c #42361E",
"x  c #433C1D",
"c  c #493D1F",
"v  c #432524",
"b  c #4A2625",
"n  c #432B23",
"m  c #4C2A26",
"M  c #452928",
"N  c #4E2A29",
"B  c #502723",
"V  c #522C26",
"C  c #582B26",
"Z  c #542C29",
"A  c #5B2E2B",
"S  c #443322",
"D  c #4C3424",
"F  c #433C26",
"G  c #4C3B23",
"H  c #463528",
"J  c #4D3329",
"K  c #473928",
"L  c #4C3B29",
"P  c #523325",
"I  c #593327",
"U  c #533B26",
"Y  c #593926",
"T  c #55332B",
"R  c #5C312D",
"E  c #543C2B",
"W  c #5B3C2C",
"Q  c #5D3431",
"!  c #5E3C32",
"~  c #602F2B",
"^  c #61352C",
"/  c #65342F",
"(  c #67342E",
")  c #63332D",
"_  c #69342E",
"`  c #623A2D",
"'  c #693C2F",
"]  c #613531",
"[  c #633430",
"{  c #673631",
"}  c #653531",
"|  c #643531",
" . c #6A3530",
".. c #6A3631",
"X. c #603E31",
"o. c #663D31",
"O. c #663C33",
"+. c #643B32",
"@. c #6E3933",
"#. c #6A3934",
"$. c #6E3935",
"%. c #6E3A35",
"&. c #683E35",
"*. c #6C3A34",
"=. c #623938",
"-. c #6D3C39",
";. c #703B35",
":. c #733D37",
">. c #713B36",
",. c #753D38",
"<. c #753F3B",
"1. c #743E39",
"2. c #783F3A",
"3. c #3C431C",
"4. c #3E411A",
"5. c #374020",
"6. c #3A4023",
"7. c #3A4222",
"8. c #3A4324",
"9. c #3F4027",
"0. c #3D4525",
"q. c #3C4324",
"w. c #3C4628",
"e. c #42431B",
"r. c #4A441E",
"t. c #444B1A",
"y. c #494A1D",
"u. c #47511A",
"i. c #48511B",
"p. c #404323",
"a. c #434025",
"s. c #4C4224",
"d. c #444428",
"f. c #4A432A",
"g. c #4D402B",
"h. c #414B29",
"j. c #534523",
"k. c #5B4527",
"l. c #554B25",
"z. c #5A4826",
"x. c #524528",
"c. c #5B422B",
"v. c #5D4A29",
"b. c #5B4131",
"n. c #5E4332",
"m. c #63442E",
"M. c #624A2E",
"N. c #674034",
"B. c #644132",
"V. c #684435",
"C. c #6C4134",
"Z. c #66423D",
"A. c #6D413A",
"S. c #704136",
"D. c #75403B",
"F. c #76403A",
"G. c #74433C",
"H. c #77433E",
"J. c #75413B",
"K. c #7B423D",
"L. c #7B423D",
"P. c #724A3A",
"I. c #7B483F",
"U. c #764341",
"Y. c #7F4540",
"T. c #7E4541",
"R. c #7D4844",
"E. c #7C4843",
"W. c #804742",
"Q. c #804742",
"!. c #834945",
"~. c #834A46",
"^. c #834945",
"/. c #824D49",
"(. c #864C48",
"). c #894E4A",
"_. c #8D514D",
"`. c #905450",
/* pixels */
", a k s n f s M s M k a M M v b B T D 6.U P s M N Q V N Z T h N N m H M m m i i v < 9 9 ; l 9 0.< 1 9 1 < 9 k 6 1 9 8 0.s < < ; ",
"s d h M f d s a p p d > s v Z b s N G 3.0.q 7 8 s V [ b Z m h s N { K d v Z B B i , # # < < l j q b b l 9 h t 8 l B 9 h h N l v ",
"Z E e R v k b i u p g 6 N ~ ) A A ) D e.t y h M =./.!.$.( ^ K R <.G.f.k <.[ Z v < > * * l 1 l q k < ) R D h 8 9 B / m L D ) m ) ",
"A ! j L.V k Z s u a w u C [ ~  .@.@.P y t w j K R.^.T.^.*./ F +.L.+.k c.>.A v v < 1 9 ; l b l l g h T n j q < 1 N R R k n N Z A ",
"[ W j G.P t T Z V N h s C A } ,.Y.,.' c z n h j k L L n.T h F n.&.X.F V.$.Z A { A m l < B < V V 8 q w h g < l v T #.[ w.s < v b ",
" .&.g U.+.h +.>.G.! k M A [ $.2.L.K.J.&.I R { k f N / @.! j E F.C.L t K +.! #.:.K.-.C b b b G E q n q n n 1 l v Z =.[ 9.J < b ~ ",
" .F.j M.F.G @.2.T.Z.k R  .:.T.2.K.2.K.K.,.<.2.+.+.~ ) ( L j W L.L.G.h H k 9.8.a.E E L k q.y j M R b N L S l A R Q #.#.d.T T A } ",
"( J.F d.K.K <.L.T.X.F [ $.>.L.Y.K.2.K.L.L.L.L.L.L.:.L.<.y k Z.L.L.<.K E H j H E K.&./ S h q M A { b R T k n C V v A =.L T -.N #.",
" .J.L 8.&.G L.E.T.C.E [ $.$.>.L.L.2.L.L.2.<.2.L.T.I.R.T.y K L.L.2.2.g.c.-.H W &.Y.2.( n J T A Q { N [ T k q.L C b R #.H 9 =.[ R ",
":.J.! e t F L.L.V.C.+.) #.#.A <.2.<.L.L.#.A ,.L.L.T.T.c.w ! L.:._ >.E L (.:.$.<.2.>.G J 2.L.V #.A T { [ S e t q.K P B s b R [ m ",
"{ L.L.+.F h L.J.c.c.&.A }  .Z @.<.>.<.>.}  .>.L.L.L.n.0.e &.L. .( :.E E T.J.:.:.@.W r m >.!.#.[ Z R R R N f T K j 0.F h n v R Q ",
"Q :.L.L.E 4 f.B.&.` ` A N Z C 2.~.T. .~ <.,.( <.L.n.h.p ! A.$.Z [ ^.! A.L.T.:.{ ~ r f N  .$.#.v v #.T.T.#.E W ` M e t S S 0 t 9.",
") F.L.<.a.8 w j g.W ^ M v Z C  .T.!.:.,.$.)  .$.B.L k n ^.L.$.A $.(.&.L.L.<.:.Z Z v v m A <.[ N v :.^.Q.I.W x R #.K m C #.A d w ",
"{ >.<.T t &.P n t t k d s N v N Z R Q A N J W E Z.L.J [ T.&.R V { T.L.<. .A A m v n b s N ) [ V B >.:.>.&.P P ` L.L.-.) I #.n 6 ",
"#.$.L.! t ^.$.I e t g 5 d f d f h K L k 9.j D -.L. ./ N / Z v v N &.>.A Z M s a N s a , b ) R I W V 1.{ / z P Y &.<.) ) ^.T.{ V ",
", v v e t W D P q 8 a u a d r 8 s v d p 7 8 i a v M A M 8 a r q f m n n s v 8 a l 7 5 p Z N m D E m W s.r.t.t.e.z D h z W W V S ",
"i v h f f x r q v v v m ! Z.x.x T N v , : : : , s R U.| f s e.y q B D P R T y b P n ! =.U.A.X.V z q n e.t.t.t.e.e r q P G G P T ",
"N k L -.-.&.n M [ <.J.!.^.^.K.M./ C R B > : $ i | (.T.U./ R D f I ' ;.' F.C.^ ,.G.#.T.L.R.L.:.A B v ) D 3.u.3.e q l V :.W &.:.#.",
"j g G.R.#.R v Z ) 2.2.Q.T.L.<.F.#.R ( ) s u : v H.(.Q.,.:. .T m #.,.K.K.L.J.,.K.L.<.,.@.>.#.) A R B ) I z y t 8 s V / F.I.L.@.@.",
"h P ^.T.).R.A ~ >.Q.Y.Q.Y.T.#.{ $.:.$.( M s a v T.Q.,.2.R.L.#.{ 2.2.Y.L.Y.L.Y.Y.L.<.!.!. .) ) ) ) C ,.,.m q 7 d C ( :.(.^.K.<.).",
"I L.!.Y.Q.!.Y.!.Q.Q.2.L.L.Q.:.<.Y.<.A  .A C s Z Q.Y.K.Q.Q.K.2.2.L.2.Y.2.L.Y.K.L.L.2.!.Q.,.>.2.;._ ) 2.:.) m 8 m &.L._.(.^.L.L.(.",
" .<.2.L.2.Y.^.(.!.Q.Y.L.L.L.L.Q.T.>.A  .>.#.v R Q.Q.Q.Y.K.Y.K.H.L.Q.Y.Q.2.L.Y.L.Y.Q.L.L.L.L.T.,.;.A @.<.#.V s Q !._.`._.!.L.Y.L.",
" .^.T.Y.[ } L.Y.Q.Q.Q.L.L.L.L.Q.<.>. .( U.R N m 2.2.Q.2.K.K.2.K.L.L.2.L.@.>.L.L.Y.Q.Y.L.L.Q.L.>.2.( L.I.:.Z a R Y.(._.(.Y.J.K.K.",
" .T.<.} Z } $.>.2.L.2.L.L.Y.L.L.2.H.<.2.H.Q Z m >.Q.2.H.2.,.<.Q.Y.L.Y.2.<.( }  .,.2.L.Y.L.L.L.+.K.;.^.F.L.{ s A 2.2.^.Y.L.K.:.,.",
"{ L.#.A ) <.>.>.L.L.L.L.L.Y.L.L.Y.T.Y.!.J.$.R Z <.L.<.K.<.>.<.T.Y.2.L.2.Q.$.A A ( ,.K.K.L.L.K.[ H.$.H.$.U.>.v A @. .2.2.H.<.} $.",
" .E.>.( :.^.Q.Q.(.L.L.Y.L.!.Q.L.K.L.2.T.F.L.-.R L.,.>.<.K.2.K.Y.L.L.L.L.L.2.( ) _ 2.Y.K.L.Y.>.:.K.$.K.#.>.>.v b A ) 2.$.2.<.) $.",
"@.<.^.<.@.^.L.Y.K.K.K.K.2.>.>.L.I.m.&.L.^.K. .T ) Z A A ,.2.>.<.<.2.Y.Y.2.Y.,.2.>.K.K.K.L.K.A K.2.Z U.-.=.>.v i T R.(.<.Y.#.~ 2.",
">.<.L.>. .L.L.J.2.K.2.2.$.[ J.Q.L.` / 2.F.$. .M Z ) @.)  .#.R >.Y.Q.Q.L.Y.L.L.L.K.Y.L.L.L.2.^ L.N O T #.R Q i i #.).Y.2.<.~ ~ 2.",
"@.( @.T.K.<.v.l.;.L.K.@.Z J.!.L.V.' >.K.) N Z s Z N A #. .$.$.,.K.K.K.2.2.2.2.L.K.K.K.K.L. .R >.O   < A v l v N ..2...$.Z Z ~ ~ ",
"( ( T.(.,.>.z.k.J.^.K.,.#.!.L.<.*.#.<.>.A N B i b Z $.<.#.....2.L.K.2.>.$.@.$.2.^.L.K.K.:.{ { b .   ; m N b b R $.<.} R Z m C A ",
"<. .J.F.c.:.@.( F.S.*.` Z ) ) Z ' @.( G.) ) v u i M #.$.N A ~ b v R #.T ) ^ ,.;.#.:.2.2.#.s < & .   . i A A N | 2.2.A N v N ~ ~ ",
"/ Z [ I z T / ' m.k.G c D N Z Z A m V R ~ C s > i v A A Z v Z b N A C P I R / ( Y ` <.+.N N & = .   O < v =.v Z #.>.R v s Z ~ C ",
"M v s a 8 a r G y.u.u.t.y s M n h 0 i , s s a , a f S v q d s f z f q y x y x z y.z U x y q s * X   X @ < s > i v G q q 8 s N i ",
"=.Z b v N N a q y t.t.y d T U.>.V 8 a u a m =.#.U.G.A.E.K J [ m q b z l t.e.3.8 x q x t.0 i v @ + o o $ i i i b I I y P z v C s ",
" .N N ) ) ~ s p 0 e e 0 T R.Q.K.#.s s T m N Q >.J.:.>.L.V.;.) Z Z ~ C N P t.0 v V n f e.8 N B = * s > = i i N ~ :.J.` @.) ) A A ",
"A b R ,.( A s s 8 0 0 8 =.).K.K.:.Z Z ( ~ Z R  . .#.I.L.,.) N Z ) ( ~ A ^ x s m ) A v q , @.A B i v l 1 v i Z ( :.L.@.@.( @.( ) ",
"A A A U.} ) A A [ J a v | T.Q.!.T.(  .#.} ~ ) $.>.Y.^.L.#.Z Z )  .} R  .^ z A C A Z v 8 s ,.$.B ( ~ C m C b A $.L.(.!.T.>.<.2.L.",
"A ~ A L.L.) (  .G.:.N m ~ H.!.Q.^.Q.2.!.>.A  .L.(.!.T.L.:.A R $.T.R.[ } ( I ~ ~ N Z i , A <.J.Q :.!.[ A [ Z #.2.L.Y.Q.Q.2.L.L.Q.",
"Z ) } (.Q.T.) $.T.Y.#.Z ) 2.Q.K.Q.Q.L.^.T.#.@.T.!.Q.L.,.Y. .} ,.!.R.:. .@.@.~ ~ C A i > ~ ,.L.<.1.Y.#.#...A  .<.Y.L.L.L.L.L.L.L.",
") ( <.).L.T.$.<.L.L.<.Z A $.2.K.2.L.Y.L.2.>.} L.L.L.L.2.!.2.$.2.T.T.L.L.>.$. .2.[ Z < ,  .L.T.>.>.T.L.T.[ Z ~ ,.K.K.Q.L.L.L.L.Q.",
") >.!.!.L.L.2.L.T.2.<.R Z #.H.K.L.Y.Q.2.2.$. .<.T.Y.T.T.R.Y.,.Y.Y.Q.Y.T.>.@.2.^.#.A , , $.T.J.} $.Y.T.L.Q Z [ <.K.,.T.<.<.L.L.Q.",
"[ Q.Y.L.L.L.L.Q.Y.,.$.N v [ 2.T.(.2.L.<.L.( $.Y.Y.Y.>.$.$.,.K.K.L.L.L.L.K.<.^.T.^.$.v , :.>.Q ) >.^.T.$.A ( 2.L.K.L.#.) @.>.<.2.",
"-.L.L.2.Q.L.L.L.<.} [ M i A >.T.L.<.,.>.>. .@.Q.Y.2.>.A A } <.K.L.K.2.L.K.<.+.$.T.,.N a :.{ ) @.L.T.^.<.} >.Q.Q.L.K.R Z  .@.,.<.",
"$.L.L.@.,.L.Y.L.#.R A M b R ..>.{ Q  . .) ( ) J.2.2.>.A R A #.H.2.<.L.<.K.L.A R <.#.N a $.) )  .T.K.T.L.T.T.L.2.L.F.R A ( ( T.Q.",
"| >.>.Z  .<.Q.2. .) A m N )  .) ) V ` ( ( ( A A #.$.>.#.>.( $.:.:.>.F.:.K.K._ @.<.} A s ) ) ) { L.>.2.L.2.L.>.$.<.$.) #.,. .~.L.",
"} ..| b N Q 2.@.) A B v b Z R m D P x I ) (  .) A ) 1.~. .R  .A ) } ( :.>.@.( >.R A ) s ~ A _ :.<.$.>.>.@.@.,.,.( A { F.>.C $.L.",
"$.( ) b v Z #. .A Z v i N Z A z z D P N Z ~ ( ( ) >.I.T.[ T L.{  .R R R @.@.( >.~ [ A 9 A A ) <.@.@. .@.>.>.@.( ( ( T.(.>.Z $.2.",
"v ~ A M s i s s f s a , i b v 8 8 v v i v q v V T Q +.#.s M A V m m m m n m n s Z A i , s A R P B N ~ C C Z N m N C Z R m s Z Z ",
"i N N s a p a 8 8 q > $ , a a 7 a a , i s u , d a s S n n s v s q q 8 ; q r 6 > , i > , , f z q s q n n 1 8 i a f f z n q r n i ",
"s s N { B N A Z s m =.#.N M m N [ N s Z v s : , #.{ I A.S.#.N m Q G.G.Z m M v b } $.$.) N / I n I =.G. .m , , Q T.L.&.n v q I $.",
"M Z U.T.$.#.( ) [ $.T.T.G.:.Q [ <.:.=.A [ A < a A ) } m.&.;.R { #.[ @.@.&.) C ) <.2.<.L.J.L.*.I  .-.!.L.R s a Q L.L.<.R ) T >.2.",
"d U.T.v.2.,.;.;.J.L.T.T.Y.A.#.<.K.>.@.V @.~ v i b Z :.C.R @.>.2.:.) @.@.<.) ' F.2.L.L.L.T.L.m.@.).R.J.C.$.A v B { >.L.>.<.:.c.:.",
"d $.C.y.` I.#.:.J.K.K.m.-.&.S.F.:.&._  .>.) m i s Z $.K.' $.,.,.*._ ;.I.,.,.W ` <.>.K.K.K.F.k.+.T.&.) ` $.R s n ) ;.#.<.,./ W m.",
"k U U x U F.F.G.v.o.C.j.W U ` L.^.` @.2. . .A s s K W L.#.U V.W E K.J.M.E K.l.G Y G C.L.F.U ` S.-.D A +.( N q y S T / C.I U D j.",
"y y z S c k.m.z.e.U U r.x G ' L.P.j.*.K.T D Z n x y D :.G x ` U G m.M.y.c W r.x z U ( :.C.x Y S.l.c { $.D q 8 e r D P W z n z y.",
"y y S R x r.c e.3.y q z e.G @.K.k.c ' &.S q n P 3.y q ( x D ` G z G e.e.y z z x r.I R R r.x c U t.S / ` z 8 6 r r z S G x r e.e.",
"y e.x ` e e.x y y r 0 q e.c ` m.r.z R U x e 8 P 3.e r C x P k.x r y x y y e l 4.e.D V m y e.x x e.q V I x 7 w e r r r x y r e.r ",
"e t.e.I x e e e y r 0 0 e e c e.y e l e.r 0 6 e e q r z y D r.y y e e y e r 7 y e q 0 0 y 4.e y 0 q q y e 7 6 e y x e y z e r q ",
"y r y y y e 7 0 0 z q 0 7 0 y e.e 0 e 7 e 0 - e r e e r 0 r y e e e e e z l 7 e y r t 0 3 e e e 0 0 e e e 6 2 w y r y 0 r e T n ",
"0 e 4.e.y y 7 6 8 q q 6 6 7 y e e 7 w - 7 6 - e e 0 e e e q e 0 e e e e x z 7 3 y e e 7 7 y e e 3 e e 6 7 3 2 7 0 e e 7 e 8 +.D ",
"- e e y e e 6 2 3 0 e 7 6 u 8 0 7 6 7 6 7 2 - 3 7 0 e 3 6 e 0 7 7 0 7 e y 7 7 7 8 8 6 3 0 0 e e 7 6 7 6 6 2 - 2 7 0 7 7 0 w 8 e ",
"- 0 e 7 0 7 w 7 3 6 6 6 0 7 e 0 6 2 6 6 7 2 % 2 3 3 0 6 2 7 7 - 3 0 7 0 y 7 7 7 0 8 6 4 6 7 0 0 3 3 6 6 6 - % 2 7 6 7 3 3 7 6 7 ",
"- 2 3 6 6 - 5 3 3 7 3 > 3 7 6 6 6 2 2 2 - % 2 2 2 - 3 * 3 2 2 3 3 6 6 0 e 3 - 3 7 7 3 - 3 6 6 6 3 > 2 6 2 % - - - 6 * 3 3 - 6 6 ",
"* 3 7 7 6 7 6 3 7 7 3 > 6 7 6 3 6 3 7 7 - - 3 7 7 3 2 2 6 3 2 7 7 7 6 7 e 3 3 7 7 0 0 7 7 7 6 7 3 3 2 - - > 5 6 6 3 3 6 3 - e 6 "
};
