/* XPM */
static char *_f5d23f71665426ca51cede156c0e18aRuoUGGb7V4PWfsIx[] = {
/* columns rows colors chars-per-pixel */
"64 64 159 2 ",
"   c #451D0C",
".  c #4A220E",
"X  c #4E2510",
"o  c #522711",
"O  c #542A12",
"+  c #5B2D14",
"@  c #5E3116",
"#  c #602F17",
"$  c #623317",
"%  c #683717",
"&  c #653518",
"*  c #69361A",
"=  c #663919",
"-  c #6C3B1B",
";  c #723D1D",
":  c #733E20",
">  c #6F401C",
",  c #74421D",
"<  c #79451F",
"1  c #7C481F",
"2  c #764121",
"3  c #7B4522",
"4  c #7D4921",
"5  c #804722",
"6  c #844C24",
"7  c #8A4E26",
"8  c #864C29",
"9  c #894E29",
"0  c #865024",
"q  c #8C5425",
"w  c #8E522A",
"e  c #915626",
"r  c #955927",
"t  c #995B27",
"y  c #93552A",
"u  c #965A29",
"i  c #9C5D29",
"p  c #9D5D29",
"a  c #9C5C28",
"s  c #9C5E29",
"d  c #9D5E29",
"f  c #9D5F2B",
"g  c #9E5F2A",
"h  c #9E5F2B",
"j  c #98592D",
"k  c #9B592C",
"l  c #9B5B2E",
"z  c #9B5F2C",
"x  c #9C5D2A",
"c  c #8E5330",
"v  c #905330",
"b  c #9D5C31",
"n  c #A15F2E",
"m  c #A05E2F",
"M  c #A05F2D",
"N  c #A15F32",
"B  c #9F602D",
"V  c #9F602C",
"C  c #A0602B",
"Z  c #A1612B",
"A  c #A2612B",
"S  c #A0602D",
"D  c #A1612D",
"F  c #A2612C",
"G  c #A2622C",
"H  c #A3622D",
"J  c #A0612E",
"K  c #A1612E",
"L  c #A4622C",
"P  c #A5632C",
"I  c #A4632D",
"U  c #A4632E",
"Y  c #A4622F",
"T  c #A5632F",
"R  c #A4642F",
"E  c #A6642E",
"W  c #A7652E",
"Q  c #A6642F",
"!  c #A7652F",
"~  c #A3622D",
"^  c #A8652E",
"/  c #A8662F",
"(  c #A9662F",
")  c #AA662F",
"_  c #A9662F",
"`  c #AB682F",
"'  c #A56330",
"]  c #A46330",
"[  c #A76430",
"{  c #A66530",
"}  c #A76530",
"|  c #A76531",
" . c #A46232",
".. c #A86430",
"X. c #A86530",
"o. c #A96531",
"O. c #A86630",
"+. c #A86631",
"@. c #AA6730",
"#. c #AA6631",
"$. c #AA6731",
"%. c #A86532",
"&. c #AB6732",
"*. c #AA6732",
"=. c #AD6731",
"-. c #AC6733",
";. c #AA6632",
":. c #AB6932",
">. c #AC6831",
",. c #AD6831",
"<. c #AC6931",
"1. c #AE6831",
"2. c #AE6931",
"3. c #AF6A31",
"4. c #AD6833",
"5. c #AE6932",
"6. c #AE6A32",
"7. c #AF6A33",
"8. c #AE6934",
"9. c #AF6A34",
"0. c #AD6933",
"q. c #AB6638",
"w. c #AE6939",
"e. c #B06A33",
"r. c #B16B33",
"t. c #B36C33",
"y. c #B16B35",
"u. c #B26B36",
"i. c #B26C36",
"p. c #B46C34",
"a. c #B56D35",
"s. c #B46E35",
"d. c #B46D37",
"f. c #B56E36",
"g. c #B66E36",
"h. c #B76F36",
"j. c #B26C34",
"k. c #B86F36",
"l. c #B76F39",
"z. c #B36D39",
"x. c #B86F39",
"c. c #B77137",
"v. c #B87036",
"b. c #B87037",
"n. c #BA7137",
"m. c #B97137",
"M. c #B67038",
"N. c #B97138",
"B. c #BB7238",
"V. c #B9713A",
"C. c #BA713B",
"Z. c #BC7338",
"A. c #BF743B",
"S. c #BC733A",
"D. c #C0763B",
"F. c #C4783E",
"G. c #C57A41",
"H. c #C97D42",
"J. c #CE8046",
/* pixels */
"B.- 5.B.Q @.k e =.e.=.B.6 r.a.G 6., :.5.:.r.u q i.=.I B.6 @.a.@.B.; @.B.| ^ l 7 @.5.@.v.6 5.c.G =.8  .=.5.i.x 6 a.5.G a.8 :.r.Q ",
"I * r a G u w 0 G a x l., x x G e * R x x a q , u x z e.3 I a a G - e a G u w 4 G a x ^ , t x G e 4 B a a a u ; r t G I 3 Q x a ",
"q * 6 0 0 e 6 - q 6 e | * e 1 e y & 2 x 0 t 6 - q 6 e @.= q q 6 e - 4 w 0 e 7 = q 6 e l - q 0 q y 2 , u 6 x 6 & q 6 e B - 0 e 6 ",
"3 ; : $ ; 3 ; ; - $ : 4 : ; O ; : ; ; $ ; 2 2 ; - & 2 2 ; 2 O ; 2 : 2 $ ; 2 ; - ; $ ; 3 : ; O : 2 2 - * - 2 2 ; - $ 2 2 ; 2 @ - ",
"V.|  .q n l.I Q N 4 @.i.| | - 5.@.] | 0 u i.=.| n 7 x.@.n @.2 x x.I @.q u M.| G @.6  .e.@.:.4 O.8.| ^ u 6 i.8.G @.6 l.-.G :.6 x ",
"Q x r k 0 x x x x 3 x Q x G : r x a r y 0 A G u  .4 a M x M 4 e ^ x u b 5 x u x  .6 x I x B 6 y x V r x < A V r 8.6 x z V x 9 e ",
"q z e y 4 q e e u 2 x q x u - 6 e r 0 w 0 e u u u < 7 r q x ; l e l e q 1 q e e z 4 x q u e 4 6 q e q y 4 e u x G 3 6 e u e 6 u ",
"+ - - * * * @ - - & * + * * $ - # - - * * * @ - - # * O - - & * $ * * * * - + - - * = + - * = - $ * - * $ * @ - - & - O - - * - ",
"y @.@.I i.:.9 B.@.5.=.3 =.5.V S.b | S.R 5.I 6 i.Q :.l.4 z.5.L v.j a @.| i.i.0 M.-.=.5., :.O.V c.| u S.Q 8.:.6 8.@.| M.2 8.l.I k.",
"b e z x G B 2 u a x A 2 a B r G ] 6 x V t @.4 G t x l 3 e A t M  .6 G a G | 4 u a x M 2 j V t V %., x A t i.6 G x x a 2 q V x a ",
"w 6 0 x q B , e q e q , 0 e e q z 6 e 0 u x < 0 e q e , q q e 0 u 4 0 x e | 4 q q e e ; 0 q e q ] 2 e 0 u B 4 0 q q e : 0 q q q ",
"- - & O - - * * + * * $ - O $ - ; * & o * * * * + * * * * + & = - * * O - - * * + * & $ - @ @ - - - * O = * = - + * - & * $ @ * ",
"p.G.5.< F.S.B.S.e M.c.c.A.5  .J.S.A.M., 6.c.S.B.e M.G.M.S.w | c.r.G.c.* F.S.S.S.e i.S.i.A.l u J.B.B.B.2 :.S.c.c.e j.J.i.S.I j l.",
"L x e.* u u u G 6 x r x z 9 e a e r / @ R V l :.y u a u u q 6 x a x i.* r t r t 6 u t x x | 4 V u u Q * R V V O.w u t t x  ., M ",
"t V  .+ x e z G 4 0 B e V 3 < e V V / O q Z x G 4 q e a u q , u a B :.O x q V V 5 0 B t x j - u t V Q @ q V V V 6 q q x u G - r ",
"O X + . o O o + O O O O o O O O O . @   O + o O + O O O X + o o O X @   O o O O O O O O O + o o O . @ . O O X o O O X + O @ . o ",
"H., B.H.e.a.N N x.B.B.F.e D.F.r.S.2 S.B.B.D.z l F.B.r.H.y B.F.r.H.: B.G.r.a.N y c.S.v.F.y B.H.r.S.9 M.B.S.S. .u F.B.r.F.y B.D.e.",
"G * e x G x e 6 x x x r.; x t V u - G a u a e < u x a e.3 V V V A - e x G x y 4 t t t Q ; x r a e 4 x a x a u ; r x G I 4 n x x ",
"t - 0 x y y 7 , z e x e.- u 0 a a & 6 I e n 7 - u e u 5.= j t q t ; 0 z e e q - V q u R , y q x x 2 4 G q G w = u e r I > y t q ",
"& O @ O @ $ @ + + O $ - O $ o $ $ O + O + $ $ O + O $ * + @ o @ & O + O @ $ # O $ O @ * + @ o $ @ + @ + + $ $ O + O # & + $ O + ",
"u.G ] 6 z u.z N j 3 N -.] n *  .N z N 6 u -.%.n x 5 u. .l  .; u z.n  .6 e z.z z G 5 z -.] ] ; N q.z n 7 7 q.| B N 6 8. .z  .3 j ",
"@.a e u 0 I x x z < a L x G - x M u x e 6 L a x G 3 G z u M 3 e %.x r k 0 A x r | 4 x I a a 6 u a a x u , A A u :.6 a A x x 7 q ",
"j z t y 0 q t r a 4 V l x z - q r t q e q r l t n < q r r a , a u a r j 4 q r u G 4 a x z l 6 0 e t e u 4 t V x Q 4 0 r t t 7 x ",
"& - - * $ * * * - @ - @ - * + = & * - * & = * - - $ * $ - - $ * & - * * & * & - ; & - + - = * = * * - - $ * $ - ; $ * @ - - * * ",
"6 ] B l q.z 6 w.G  .G 2 ] G l z.e n z.a  .x 5  .n G q., 8.q.x 5.e k ] l | q.5 6.I  . .;  .n x 6.k e l.z  .N 6  .n n w.; %.q.a 8.",
"k y V x G ] 3 x a x z 2 B A e G  .6 G a x  .4 G x x G 2 e V t M N 0 G a G | 6 u a x M , a a e Q %.4 a V x @.6 B x x a 2 q B t V ",
"u 0 e a e G 2 x y u t < q j u u ] 0 u e x G 4 q u r x 2 e u r r a 6 q B u | 4 y e r t ; q y t u  .3 x e x I 4 e u e t 2 e u e e ",
"; - & & - ; * * $ - * # - @ * - 2 * * + * ; * * $ * * * * @ * = ; - = @ - 2 * - $ - * $ - & $ - 2 * % + - ; * - $ * - & = $ = - ",
"k q.r - @.N ] z 4 z z n  .; e u. . .x * k z ] ] 5 ] :.l ] 3 e N l q.z $ %.]  .] 4 z  .l %.5 0 w.b ] z * l B ] ] 4 z q.B ] w 6 N ",
"M z r.% M a t L 6 a a a a 8 e Q u u ^ $ I n a :.w x Z t a 0 6 A A a a.& x a u x 6 x a a a ] 6 Z x u @.* Z A z Q e u P t a ] < M ",
"M d Q @ x r d ^ 6 0 z t a 5 4 r x a 5.O e Q d P 6 q y V a w , u M d 5.O r r x G 6 0 a x a b , t t a @.$ e Q a A 9 0 e t t Q - r ",
"$ $ - . @ @ $ % + @ & $ * + O @ $ @ -   @ & $ % + @ @ $ $ $ O $ & @ -   $ @ $ $ + @ $ $ & = O @ $ $ * . @ $ $ $ @ @ @ & $ - X $ ",
"V.* 8.M.n %.y u q.8.| i.6 =.z.n 8.- q.@.%.-.w e i.q.G a.7 q.e.n a.- 8.V.B ] y 8 | 8.] 8.6 -.M.z q.2 -.q.q.5.e 9 z.w.G e.9 8.w. .",
"| * u V B k w 6 a a a r.; M M x x * V V x M q < x x x i.3 a G M G - e a G B e 3 t x x @.2 a V x t 4 x a x B e ; x x V Q 4 a x x ",
"A * q A x r q 4 R t a c., z r I V & q Q r A y ; x r x r.- R M t A : q G x e e 2 Q t l @.2 u u A t < q R u G e - x e t ^ , G a r ",
"+ . O O + + O X + O + * . + O O + . O + + + O . + O + = . O O O + . O O + + +   + O + $ . + O @ + O O O + + + . + O @ $ X O O + ",
" .e j : e N e y 7 , k b j y $ k u y e 2 q b k u 0 2 N k e j * e N u k < 0 N j y e < e b j u * u k j e 5 5 b b e y < N u e k ; q ",
":.V u u e / z a z 3 x I x G - z M x x y 0 Q A u G 4 %.I r C 3 q -.a u r 0 @.a u / 5 x I z z 6 V G l a r < I Z u | 6 Q Z j V w 0 ",
"a M x k 0 e a a x 4 V G a @.; q r a r u q x G d I 1 e x d A , V l G t n 1 e x t Q 5 V A M M 6 q r d r x 5 x B t 5.4 q t a a 7 z ",
"* , - - $ ; - - ; @ , = , - + = - ; * - % > * ; ; @ % - - ; $ ; * , > - $ ; - - < $ > % ; - * $ - > - ; @ , - , < $ - - ; ; - - ",
"4 b x e N j 4 %.l z k ; z l r -.6 x q.u z y 4 N u k  .- q.N u N 6 u l u B b 4  .b b l - B l y | 7 w -.u b k 4 b k x %.*  .q.y N ",
"u u V x I  .4 k d x V , n I q R %.0 A t a G 4 n t V R 3 u a t Q z 0 n z Z :.6 x a x A ; V V e / -.4 n d x @.4 G x u A 3 q z x I ",
"k q x V a G 2 z x x d < e V d B N 0 a V a Q 4 x V t x < u G u t n 0 u M V | 4 x x x t < q u a l  .3 V V a :.6 u x x x , e B r x ",
"; * = - - 2 $ * % - % # - = % = 2 * - & - ; $ * * * - $ = & - = < & % - * 3 * * $ - * + - = - - 3 $ - $ - , * = = * - @ = % % * ",
"5 c 3 $ w 8 9 6 - 8 6 5 9 + 4 c 9 w 5 + 8 6 8 9 - 8 9 8 6 * , w 5 9 6 O 9 8 9 6 - 6 6 6 w - , w 8 6 6 + 6 6 6 9 - 6 9 6 6 ; ; 9 ",
"M G =.% | G x I 6 V M M I 6 q 6.x a Q $ A G n ` w a ^ A G 7 q Z M  .p.$ ^ n a M 6 l Z t n N 5 5.V V ^ - V Q G | w x 5.d Q z 5 M ",
"A r @.& e t t ^ 6 0 t M t 6 0 r r t 6.O e Q a I 9 q t r x y , e A r r.@ e t r I 0 0 V V t l 4 r r t =.$ q Q a V 9 q r t x | - e ",
"1 4 6 O , , 4 4 - ; 1 , 4 - = > 1 4 q . , 1 1 5 - , > 1 < ; $ 4 1 < 0 . < ; 1 1 - , 4 , 4 4 @ , < 4 6 O , 1 1 4 * , > 1 , 0 @ 1 ",
"k + u b 7 y 2 5 e y q e : y b 8 j + y y 7 y < 5 k y 7 j : y j 7 j $ e l 7 y 5 ; y y 7 u ; y N 0 e * v y w e 4 2 k v 7 j ; j y 9 ",
"=.& x ^ A a y 6 a n A r.2 L M a a - l M x ^ 7 1 M M t p.4 a G B @.- u P n x y < x a M =.< M I t a 4 u M V P y ; L n a ^ 4 a n a ",
"I - e a A u q 6 I x t c., a t I x * z n t M e , u x a e.> Q a t z : q Z a u e < n x a ^ , u r Q u 4 u n d A r - r t a Q 2 Q a x ",
"; O - - - , - @ ; - , 6 O , & ; < O $ , - < - + ; - , 6 + > ; ; ; + % ; - ; ; O ; - , 4 + ; * ; , $ $ , - < - O , - , 4 @ = , * ",
"8 3 4 * 2 8 4 2 , * 4 w 4 4 O 5 4 2 4 * 2 6 4 3 , - 8 6 : 5 # 2 9 3 4 - 3 8 4 2 4 * 4 8 4 4 # 4 5 4 < ; ; 5 4 3 4 - 8 6 3 4 * 2 ",
"a.Q G e k l.A R ] 4 Q ` I Q ; @.^ V ^ y q r.:.Z I 6 e.` z @.4 r l.I n y q a.G G =.5 G 5.Q Q 5 I =.N L j 5 =.` V =.6 8.^ B O.q y ",
"G a x k 0 u t t x 3 V Z x Q - r r V e e q B V t  .< r x x M < a M M x l 1 r t t Q 6 a G a A 6 q x a t j 4 V V V 8.5 e a V a w u ",
"< 6 1 3 - 1 1 1 6 * 5 , 6 < * ; 1 4 < 3 , 1 1 5 6 % , 1 1 5 % 5 < 6 < < - 1 1 1 0 - 6 , 6 1 ; > 1 1 < 4 - 5 1 5 0 - , < 1 1 , 4 ",
"; 6 6 5 9 4 - y 6 6 6 * 6 6 6 y ; 6 y 5 6 4 - w 6 6 9 * w 7 5 7 ; 5 6 6 7 9 ; w 7 6 6 $ 9 6 5 w 2 4 y 6 6 5 - w 7 6 w + w w 6 9 ",
"u B Q V 5.@.6 / I Q I < ^ ^ u 8. .u 8.M I  .6 ^ z G 5.4  .Q A ` z r L A ^ e.6 ^ L L ^ , I I t r.-.6 =.A Q :.6 Q G a =.3 z @.M =.",
"b 0 x a z N 3 x a x a 3 x a x z ] 0 a a a ^ 4 x a a x 2 u A x t N 0 a M z @.4 u d t M 2 u x a a  .3 d V a 5.5 V a x x , e V x t ",
"4 , , 1 , 6 * , , < , & , , < , 6 , , , 3 6 * , < , < * , > < ; 6 ; ; 1 , 0 - < ; < , $ ; , < , 0 * < > 1 6 - , 2 , < & , , , , ",
"; : - + 2 , : - $ ; ; - 2 O - 2 2 2 - O ; ; ; , $ ; : ; ; + - ; ; 2 - O 2 : : ; $ ; ; - 2 $ * 2 2 : - O ; ; ; 2 $ ; 2 - - * $ ; ",
"I r.1.- v./ Q :.0 Q / Q @.6 r D.Q O.@.* Q / @.6.w I k.^ 5.9 u ^ I r.a.$ e.r. .@.7 I =.L @.b 0 v.^ @.` ; Q ` @.5.w G v.Q 5.G 6 Q ",
"I r 1.* q t r Q 6 e x a x 6 7 t r t 5.O u G V R q q x r t e 1 r A r i.@ e t r A 7 0 x M x N 6 r r r 1.$ r R z G q q x t t q., e ",
"q q r + q 0 q e 3 6 q 0 q , , 6 q q x O 0 e q u 3 6 5 q 0 6 > q q q V X q 4 e q 1 4 q 0 q q - 0 0 q x @ 0 q q q 4 4 4 q 0 u = q "
};
