/* XPM */
static char *d0e81cdcec2a4ce393b7d46dd1020c24LTmEZ6iJS3w0gR9a[] = {
/* columns rows colors chars-per-pixel */
"64 64 164 2 ",
"   c #642C12",
".  c #682F14",
"X  c #6B3316",
"o  c #6F3718",
"O  c #703719",
"+  c #753B1B",
"@  c #793F1C",
"#  c #7C421D",
"$  c #7E4421",
"%  c #80451E",
"&  c #82481F",
"*  c #814621",
"=  c #854A23",
"-  c #894E25",
";  c #874E29",
":  c #8A4F28",
">  c #8D5226",
",  c #8D532A",
"<  c #925526",
"1  c #965927",
"2  c #985A27",
"3  c #91562B",
"4  c #955A2C",
"5  c #9A5D2B",
"6  c #945B32",
"7  c #9A5E31",
"8  c #9E612D",
"9  c #9D6233",
"0  c #A3642D",
"q  c #A8672D",
"w  c #A6692F",
"e  c #A9682E",
"r  c #A36533",
"t  c #A66934",
"y  c #AB6D34",
"u  c #A16738",
"i  c #A46A3B",
"p  c #AB6D39",
"a  c #AE7034",
"s  c #AE713C",
"d  c #B47335",
"f  c #B97736",
"g  c #B77837",
"h  c #BC7937",
"j  c #B3743C",
"k  c #B87738",
"l  c #B6783D",
"z  c #BC7B3B",
"x  c #C07B37",
"c  c #C27E3A",
"v  c #A66E42",
"b  c #A77045",
"n  c #AB7242",
"m  c #B27641",
"M  c #B67A43",
"N  c #BC7D43",
"B  c #B57B4A",
"V  c #BA7F49",
"C  c #C17F40",
"Z  c #BF803E",
"A  c #C5823C",
"S  c #CB853D",
"D  c #CE883F",
"F  c #D0893F",
"G  c #BF8145",
"H  c #BC824B",
"J  c #C48443",
"K  c #C98741",
"L  c #CD8A42",
"P  c #C3854A",
"I  c #C5894C",
"U  c #CF8E4A",
"Y  c #CF8E49",
"T  c #CB8C4B",
"R  c #D08B40",
"E  c #D18C41",
"W  c #D18C43",
"Q  c #D28C42",
"!  c #D38E43",
"~  c #D08C45",
"^  c #D38E45",
"/  c #D08D46",
"(  c #D18E47",
")  c #D18E46",
"_  c #D38F47",
"`  c #D58F45",
"'  c #D48F45",
"]  c #D28D43",
"[  c #D18F48",
"{  c #D18F49",
"}  c #D18E48",
"|  c #D28F49",
" . c #CF904E",
".. c #D59147",
"X. c #D69046",
"o. c #D69146",
"O. c #D79146",
"+. c #D79247",
"@. c #D59146",
"#. c #D89347",
"$. c #D39149",
"%. c #D3914A",
"&. c #D59149",
"*. c #D59249",
"=. c #D69249",
"-. c #D4914B",
";. c #D4924B",
":. c #D4924A",
">. c #D7944B",
",. c #D1904C",
"<. c #D5934D",
"1. c #D7954E",
"2. c #D7964F",
"3. c #D5924B",
"4. c #D89248",
"5. c #D89348",
"6. c #D99349",
"7. c #D99449",
"8. c #D9954A",
"9. c #D8944B",
"0. c #DA964A",
"q. c #D8954C",
"w. c #D9964C",
"e. c #DB964C",
"r. c #DC974C",
"t. c #D9954A",
"y. c #DD984D",
"u. c #DE994D",
"i. c #DD994E",
"p. c #DD9A4F",
"a. c #DE9A4F",
"s. c #DD994E",
"d. c #C68B51",
"f. c #C98E53",
"g. c #CE9252",
"h. c #D79550",
"j. c #D29453",
"k. c #D59957",
"l. c #D99851",
"z. c #DA9A53",
"x. c #DD9A50",
"c. c #DE9A50",
"v. c #DB9B54",
"b. c #DA9B54",
"n. c #DC9C55",
"m. c #DC9C56",
"M. c #DD9D56",
"N. c #DD9C52",
"B. c #D49959",
"V. c #E09C50",
"C. c #E09D51",
"Z. c #E19D51",
"A. c #E19E52",
"S. c #E19E53",
"D. c #E29E52",
"F. c #E29F52",
"G. c #E19F53",
"H. c #E3A053",
"J. c #E3A256",
"K. c #E3A156",
"L. c #E5A55B",
"P. c #EAAA5E",
"I. c #EAAB62",
"U. c #EDB066",
/* pixels */
"F.3 =.F.....N l 4.q.0.H.p y.y.! 0., 1.0.=.y.l d N.>.! H.p ` y...F.3 =.F.` ` N p ..0...F.p #.Z.! #.9 ;.>.1.y.N p u.r.! V.p =.q...",
"! ; c S L A j d R S A N.5 S S ! c ; ) S S S k 0 A S L h.9 ` L S R , x L R A j t L S S ..8 A A ! c 9 J D S S l 5 A A L ~ 9 ` S S ",
"c = d f g c a 4 z d z { > z y h c = t A d S p 4 z d z ) 3 g z d c , p g d z d > z g z L 4 z d z c 4 w A d S p > x d h L 3 a c d ",
"6 , 6 $ 3 6 3 , , * 3 9 6 3 + 3 6 , 3 * 3 6 3 , : * 6 6 : 4 + 3 6 3 6 * 3 6 3 , , * 3 6 , 3 @ 3 6 6 3 * > 6 6 , < * 6 4 , 6 # 3 ",
"M.{ Y j K b.L Y J t ,.h.Y ) 3 ;.{ J =.j z z.;.Y K p b.{ L | 7 K n.) Y j J M.) L ,.p L 1.{ ) 9 { 1.T { N d ,.<.L =.p b.=.L <.p A ",
"..S A N d K S S J 0 S ` A ! , A S L A k d F L A Y 0 S L K R 7 c ) S A G y A S S ) t S ` S D i x S S S z e L L A 1.r S K L S s z ",
"z K c d y h c c c 9 S g A A 3 d x c f j g c A A c 5 k x x A 4 J h K x k w h c x L 9 S l S c r d z A h l t A A A L r d x c c p Z ",
"# , , ; - ; % , : = : # , : * , * - , - ; - $ , , = : $ : , * , * - > ; ; , # , 3 * : @ , : ; ; * > , - * - $ , , * , + , , = , ",
"j { =.) z.T s M.=.q.=.9 =.=.L H.G I H.! q.L p q...>.z.9 z.s...p.N J ..` r.z.s N.=.>.>.4 <...L G.K G J...>.>.a 1.=...N.4 h.N.! N.",
"N z L S R K 8 A S S R 9 K L A L P d S D A ;.t L S S S 9 h S A S I d L S R Y r A S S D 7 J L A R I 0 S D A 1.t L S S L 6 g L S S ",
"j f k A z K 9 c g c x 4 h z c g G d z h A J 0 f z h Z 4 h z A f z a d L z ) r z g c h 4 d g A g I w z g S L t g z z z 4 f z z h ",
": , * + , , = - $ - = = , + = , , , = + - > = : # ; , = = # & ; , - = + , , : - # - - * , $ $ , , ; = + = > = ; # ; > * ; % * - ",
"y.L.1.9 L.J.H.J.l N.F.F.H.r { U.H.L.y.4 2.H.K.K.l M.P.z.J.s Y A.y.L.F.3 J.L.G.H.l b.J.y.L.z A I.H.K.Z.5 2.H.H.K.l z.I.y.J.I c M.",
"R K q.< A A A R p A A S S i z S x A ..# ..D J >.j A S S S s a S L S y.- c A c S p A S S S I a S A A ..; ! S L ..j A D S S T 0 F ",
"S L L # S A L L r h S A L 9 w c S L ..+ h F S L w h Z S A a 8 A S L =.+ S x F ! t k K A D N 4 A A L ! & h ! S D t l z S A L < A ",
"# o * X + + + # + + @ @ + + @ + # X &   # # + # + # O # + # + + # X * . @ + + + + + + # + $ O + @ + # X + # + + @ + o # + $ X + ",
"P.4 J.I.r.F.H K G.J.F.P.j J.L.r.J.6 H.K.N.J.G J L.H.0.P.M N.L.p.P.4 J.P.r.r.P l N.H.u.L.j H.I.0.F.i N.H.H.J.I l L.L.0.L.M H.H.p.",
") = A A R A j a S S S r.5 S S L Z , L S A S d 0 A S L 1.r D S D L > Z S L L l r S S S ..5 A A S A 9 J S A D g 5 A A L ) r D K S ",
"S : k A c A a 9 K h A =.2 A g S S * d L z L s 2 A x S 6.> J S z S 3 a S A h d 3 L x J ) 8 c x S S 4 a L z ! k > c x A ` 4 Z S h ",
"= + $ @ * * $ @ $ # * , @ $ + $ * @ # # & * $ @ $ @ * = # $ O & * @ $ # $ = $ + * + $ ; @ * + = $ $ # # $ * $ + % @ * = # * + # ",
"g.K J t J g.J J M r K f.P J - I P J P t z T T K N t j.P C I 3 c g.J I t z g.J J J r J T K P 4 J T K K p p T T J K t g.K J I 0 z ",
"` F c N k R S K J 8 S ! S L 3 S S S S j d ! L A J r R R A R 7 z =.S A N d D S A { t A ! L S i c L J S z 0 ! D A ,.t L D J S s h ",
"J L A l d x A c A r S S S D , f c S x k g A J S K 0 x c A S 5 K A S A z e h A A Y t S S S S t d A A c z y S S S ;.r h A S A p S ",
"= 3 < : = < - 3 3 * 3 * 3 < $ , : < , - > > - 3 3 * > = 3 3 * 3 - 3 3 : - < - < 4 * 3 * 3 > - ; > > 3 > * 3 ; 3 4 * > * < , : , ",
"t P J K { P t g.J T J 5 I L A j.j K j.J T c t T K I ,.4 g.Y J ,.d G J K Y T i j.L T L 3 T K A j.N l j.J I I t Y K K g.3 T g.S  .",
"N c L S R T 9 S R S R 7 L ! c L P d D S S { r L J S L 9 c D A F P d ! S ! { t A S A R 6 A L c ) T w L D S >.t D S J L 6 z D S D ",
"l f z L c J 5 S c c S 5 h A A J P d A A S L r c A c S 4 z A A c G d g L A ;.r A c A A 4 g c S A I 0 S A S F t Z S A A 4 z A z A ",
"3 3 - = 3 4 ; > = , , * 3 & - , 3 > > # > 4 = > = , 3 = > * > > 3 > > * , 4 ; > = 3 > $ 3 = - , 4 - > # < 2 ; > = > , * > = - > ",
"c d.l 3 I P P J t C K J P , g g.I I A = N J P P r P T J P 7 d P c d.J * I I P K r G J J I t p g.P P J : G J J P r G I S K s t P ",
"R L 0.< R S S Q p K S S R i z ! A A ` & R L D ..j A F S S p d F L L y.= S D A S y S S S L J y F S S ` > @.F L ..j A ..S L P 0 F ",
"S S ` & S A S ` t h K S S r y A A F #.@ c ` S ` p g A S S j 0 A D S #.# A A S ! p d F F S N 0 S A S =.= h F S D a l A A A Y 1 A ",
": = < . = % & < $ % - & - # # % - - <   = - - > $ * & > - * @ & - = 2   & % - - # % - & - : @ & & = < X & - > > # # # > & 3 O = ",
"k.: ,.k.J Y m j  .,.L h.p { B.L j.: j.{ T <.p M B.{ J k.p T j.L k., ,.k.J T m p T { L j.t { k.L f.6 T { ` j.m p k.g.K j.p  .j.K ",
"` ; S D L S j d S K K r.4 F S S A : L S S R j 0 S S F q.t S L R ! > A S ! L l 0 S S L ` 5 S S S S 9 K L S F k 2 S K F ^ r S K K ",
"F , z S S S j t ) A S N.5 L x ! F = c ` c Q k 5 A S S e.3 ) F c F 3 k L S c k 5 ~ A R 4.9 J A F S 7 k ) c ` z 3 c c D O.4 R F c ",
"% . @ # # * # X # # % : . % @ # % . + @ % & @ X # @ % - X # @ # % X @ # @ * # . % @ % = o # @ % % O + # # * @ . * # % = O @ # # ",
"H j M 5 j H l j p 4 N V M j * N N m M 4 j N M j p 4 H N j N = j P m M 7 j H M j m 4 M N M l : N N M j r t N B j j 7 C N j M 3 j ",
"4.L A j h ..L S J 0 S ^ S F 3 L S S F j d #.R K L t ` ~ A R 7 x 6.R c z d ` K S ` r A ` L L r S R K L N t ~ R S ` p } Q K F p f ",
"L R L N d c S S A r F L S @.3 x c F c z g S ~ S L r x S K R 5 R K ~ S C d x S S ) t R L S R t h c R c c y F L F 6.i x c F F s L ",
"< 5 2 3 - 2 2 2 5 = 5 > 5 4 # > 5 2 < 3 < 2 3 2 5 & < 3 2 2 * 2 < 5 1 < = 2 < 1 0 = 5 < 2 1 - > 2 2 2 3 & 2 < 5 0 = < < 1 1 > 3 ",
"7 J N z P j 9 d.N J N 4 H N l f.r N f.l J k r P N N P 3 d.P g P t M N z C C 7 d.C N C : G N l I p j f.z J N 7 P N N d.= P P N P ",
"M c D S ) T r S F S S 5 R Q x ` P f F F S I r F A S ` 7 c S S ! C k R L ^ 6.i L L S R 6 K F c ..T t R S A ..t L S S L 7 z R S R ",
"N h A F K K 9 D S A S 9 c K S K P d S S S ) r A S S L 7 A L S S J d c ~ K | r S S S S 5 z S F K T t D L D =.t S S S S 4 A L A S ",
"3 3 > 4 3 8 = < < 3 < * < < < < 7 < 3 - 2 5 = < < < 2 * < - 3 > 7 > > < < r - < : 3 < * < > < 3 8 - < - 3 0 - 3 > < 3 * > > < > ",
"r b 7 # v i i t - i r t i # 8 b i v r @ i t i i : i i u i = 7 t r v r + v i i i : u t r v : 2 b i i t @ r r i i - i i t i 3 3 i ",
"F ) =.< ..F S ) p L L S R i h 0.S S ! - L R ~ ` j S #.F R p g F F ^ r.* Q Q S F y S ` S R P y 4.S L O.: D ` L ..j A 0.S ! J t R ",
"R c ) - c A A #.t h S F S u d A c S 0.@ c ` S ~ p z S c S j 0 c R c y.* x c c ` p d S S A C t c c S 4.= c ) D D s g A S A Y 2 c ",
"q t d + 0 0 e t 3 5 e 0 r < 1 5 e r d X 0 e 0 p < 0 5 q r 4 > t q r d O q 5 y e 3 5 e q q r = 0 q r a @ 8 e w e 3 5 5 e 0 p = 0 ",
"N $ m M p j 6 9 j m a m 4 m B p m $ n j p m 6 9 M m p m 4 m m p M $ s M p s 7 4 n j p M 3 j N p j ; p m j s 7 6 M m p m 4 m m p ",
"#.= L ` D S l d S L ! u.8 R Q S S , L D K ` d q R L A N.r S ~ L ` 3 A ` ! S N r S S F 4.9 F ) A S r J R L ` l 8 R L S 4.r D Q K ",
"R : x L D A j a ) S S p.5 S c ` S ; K R A D j 0 A S L 0.5 { L S L 3 z R S A j 8 ! S S ..8 A A ` A 9 c ~ S R l 4 c c R ` 5 ^ D c ",
"8 + < < 2 8 3 $ 2 4 5 y # 2 < 8 5 @ > 8 2 0 3 # 5 < 8 p # 2 2 2 5 $ < 2 2 5 3 # 5 2 8 r $ 5 < 2 5 = - 5 2 0 3 @ 8 < 8 t = < 5 2 ",
"i 7 r : 9 i 9 7 4 : r i 7 9 @ r r 7 9 : 5 i u 7 2 : i u 7 9 $ 7 v 7 9 , 8 i 9 5 9 : 9 i 7 9 * r u 9 9 , 3 u r 7 r : u r 7 u = 7 ",
"V.` L l J q.R R J r { 4.~ ` 3 { ` L ) k z e.` R ~ y e.#.L ` 9 A N.~ L l z y.Y D =.t L 0.` ) t Y 4.) ~ C d 0.#.L 4.p e.O.L ` n c ",
"R S S N d A S S K r F R S ` 6 x A F c l g L R A L r c S K F 4 S R S A J y c S A ! t S ` S ! i c A F A c q S R S q.t c S L D p S ",
"r p q 0 5 q e e t < y 5 d y * 5 e e 0 9 8 e t y t , 0 q q y : y 0 p q 0 2 e e q d 3 y 0 y q 3 5 e t q 0 3 e t y d 3 8 q q e 5 r ",
", i t t p 9 , n t p t : p i r n 3 t n t p r 3 p i t p ; n p r p 4 t p r p p , n p i t = p i r p 7 9 n t t t , p p t n # p n t p ",
"l L ) D >.Y p ..Q ~ ` 5 ) ` S 4.I A 0.R L L t ` L L 1.9 I ` D 0.J z ^ R ` h.p ` Q ` ` 4 ~ Q S e.T d >.F ..>.t ..L L =.7 J 4.R =.",
"N z L D S I 9 S L S F 8 A S S L P d S S L ` t L S S D 5 A D S S P d K R D { r A S A S 5 c S S L T t D L S >.p S S S S 6 c R S S ",
"8 8 2 q 0 y > 0 5 0 0 = 0 0 8 8 t 5 0 5 0 t 3 2 0 0 0 = 0 5 0 8 t 2 2 t 0 j 3 0 5 0 0 = 5 0 0 5 p < 0 2 w a > 8 0 8 0 = 5 5 0 5 ",
"3 6 : @ 4 6 , , * 3 3 , 6 + : 6 6 3 , + 3 3 6 3 % 3 3 , 3 # > , , 6 3 O 3 6 6 , * 3 3 , 6 * = 6 3 3 , @ 3 3 , 6 * 3 3 , , = = 3 ",
"! q.4.< y.#.=.0.s ) #.` ` t c F.` ..#.: L #.=.e.j ) y.=...p z ..! r.y.- q.0.) ..a Y 0.R =.G d Z.....0.3 ) #.#.>.j L H.` 0.K s ` ",
"! A <.> x A A ..t h A S S p l S A A >.# S L S ) j z S A S j w A L A y.* x S c F p g S L A J y A A A 4.= A ..D D j z S A A T 2 c ",
"h z A # h d h z r a x d z 4 8 d h z J + d c g A 9 d a h h p 2 z h z S O h a c z 0 y z g z d 1 d f z A & d z h z 9 a y x d J < g "
};
