/* XPM */
static char *_dc9d4bfffc54216dbbf73d35595db78pTc2xF8l2zxE9ZAg[] = {
/* columns rows colors chars-per-pixel */
"64 64 169 2 ",
"   c #1E1516",
".  c #1F1815",
"X  c #231717",
"o  c #241D16",
"O  c #211718",
"+  c #251B19",
"@  c #2B1D1C",
"#  c #311E1E",
"$  c #391F1E",
"%  c #272017",
"&  c #292317",
"*  c #272118",
"=  c #2B2419",
"-  c #2E2919",
";  c #33251E",
":  c #3B231F",
">  c #322C1A",
",  c #3B2D1E",
"<  c #35331A",
"1  c #3B341C",
"2  c #3C3B1B",
"3  c #2E1F20",
"4  c #321F20",
"5  c #352221",
"6  c #3B2423",
"7  c #3D2B21",
"8  c #3E3020",
"9  c #42361E",
"0  c #433C1D",
"q  c #493D1F",
"w  c #432625",
"e  c #492726",
"r  c #432B23",
"t  c #4C2A26",
"y  c #462828",
"u  c #4E2A29",
"i  c #522D27",
"p  c #542C29",
"a  c #5B2E2B",
"s  c #443321",
"d  c #4C3324",
"f  c #473C20",
"g  c #4D3C22",
"h  c #4D3028",
"j  c #523325",
"k  c #593427",
"l  c #533B25",
"z  c #583825",
"x  c #54322B",
"c  c #5D312D",
"v  c #563B29",
"b  c #5C3C2B",
"n  c #5D3431",
"m  c #5E3B36",
"M  c #602F2B",
"N  c #63322D",
"B  c #69352E",
"V  c #623A2D",
"C  c #693C2F",
"Z  c #673733",
"A  c #653530",
"S  c #643531",
"D  c #6A3530",
"F  c #683631",
"G  c #6B3631",
"H  c #683732",
"J  c #693733",
"K  c #6C3731",
"L  c #6A3631",
"P  c #673833",
"I  c #663D31",
"U  c #653B32",
"Y  c #693833",
"T  c #6E3933",
"R  c #6C3935",
"E  c #6E3934",
"W  c #6F3934",
"Q  c #6E3935",
"!  c #6E3A35",
"~  c #6F3A35",
"^  c #6C3A36",
"/  c #6F3A36",
"(  c #6F3B36",
")  c #6F3B37",
"_  c #6D3A34",
"`  c #623938",
"'  c #6D3C39",
"]  c #703B34",
"[  c #703A35",
"{  c #703B36",
"}  c #733C37",
"|  c #713B36",
" . c #713D39",
".. c #723E39",
"X. c #733F3B",
"o. c #743D38",
"O. c #753D38",
"+. c #753E39",
"@. c #743E39",
"#. c #763E39",
"$. c #753F3B",
"%. c #773F3A",
"&. c #753E39",
"*. c #783F3A",
"=. c #3E411A",
"-. c #42431B",
";. c #4A441E",
":. c #444B1A",
">. c #494A1D",
",. c #47511A",
"<. c #48511B",
"1. c #4D4222",
"2. c #534523",
"3. c #5B4527",
"4. c #554B25",
"5. c #5A4826",
"6. c #524528",
"7. c #5B422A",
"8. c #5D4A29",
"9. c #4E5020",
"0. c #63442E",
"q. c #624A2E",
"w. c #614733",
"e. c #664131",
"r. c #6C4234",
"t. c #66423D",
"y. c #6E413D",
"u. c #704136",
"i. c #77403B",
"p. c #76413B",
"a. c #78403B",
"s. c #7A413B",
"d. c #79413D",
"f. c #7A413C",
"g. c #79423D",
"h. c #7B423D",
"j. c #7A423D",
"k. c #78433E",
"l. c #7C423D",
"z. c #7D433E",
"x. c #79443F",
"c. c #7D453F",
"v. c #7E443F",
"b. c #7B423D",
"n. c #724A3A",
"m. c #7B483F",
"M. c #764341",
"N. c #7C4540",
"B. c #7E4540",
"V. c #7F4540",
"C. c #7C4744",
"Z. c #7E4541",
"A. c #7F4945",
"S. c #7D4944",
"D. c #804641",
"F. c #804742",
"G. c #814743",
"H. c #804742",
"J. c #814844",
"K. c #834945",
"L. c #834A46",
"P. c #864C47",
"I. c #834945",
"U. c #824D49",
"Y. c #864C48",
"T. c #874C48",
"R. c #894E4A",
"E. c #8D514D",
"W. c #905450",
/* pixels */
"@ 4 6 6 e w w e w w 4 4 e e 6 u u i j w.v j 6 r p n p u p a p p u i i n p p y w e w w w w t t i i i M p e p p u p a p p u u 6 6 ",
"6 6 u y 6 4 4 4 @ @ X + w e u e 6 i g 9.2 7 = 5 5 p N u p p u 6 u J J p y a a p w # X X : e a t i p B M M a e w p N N _ C._ M p ",
"u Z M N u u e # 3 3 3 @ i M M M a N d -.2 < , r ` U.V._ B N M S *.C.T.z.*.' n u 4 5 5 @ a e M M M N *.G.*.} p a _ V.C.T.C.*.*.*.",
"a X.Q M.a M p 6 3 4 4 4 p N M B _ K j 2 2 1 w U K.U.V.K.{ B W $.h.N.D.z.o.a e e p e u 5 M a M N D o.G.*.o.S e p o.h.V.V.*.S Q *.",
"S *.a.i.N c S p u p u w a a D o.D.} I g 1 r D N.R $.$.V.o.S h.N.v.*.o.*.{ p a D c c N e M N N D G W z.o.M a p J V.h.{ o.a y p Q ",
"B $.x.Z.T B _ { X.' ' a a M _ *.V.*.a.I k N { K a a D { X.d.D.N.z.*.| *.*.' } } d.d.B a $.B Z N.N.W W G M M M Q V.V.V.V.m e a W ",
"D a.J.Z.a.$.K $.N.C.D.D D } N.h.z.*.*.*.$.$.*.*.J a N K *.V.N.h.z.*.{ W *.} N.*.V.i.D p z.V.D Y.D.o.*.K.{ B D D.K.x.D.V.C.o.K.K.",
"D i.V.v.z.z.$.v.D.N.N.J _ o.h.z.l.*.l.z.z.z.z.v.h.o.h.$.h.N.z.z.v.z.o.o.*.N.z.N.v.d.D i V.V.v.D.*.D.D.L.N.o.o.N.h.*.z.h.K.L.L.K.",
"C j.v.l.l.j.v.Z.N.z.h.Z _ { { z.h.*.N.N.*.$.*.z.V.N.K.z.z.z.z.z.*.*.*.l.h.K.i.z.z.a.V i v.v.D.v.z.z.N.N.V.d.N.V.h.$.l.T $.L.D.V.",
"| a.l.v.v.v.v.x.e.( o.N K J a o.h.*.*.h.J a { z.z.z.V.z.z.z.z.} B | l.v.K.h.T $.*.] f h *.N.v.z.z.$.o.d.d.V.V.K.K.d.S p N a.z.z.",
"Z i.v.l.J.v.v.p.7.7.( c N D p Q *._ o.} S D { z.z.z.z.z.z.z.a.K B | l.z.z.h.{ $.Y b 1 t o.K.*.X.*.' } *.V.K.V.V.h.R p p D { *.z.",
"c o.v.j.j.v.v.u.r.U V p e p a *.U.h.D N *.} D $.h.z.z.*.z.z.{ p S D.D.z.z.h.| Z c 8 w t S _ D p p J V.A.N.n.e.u.h._ Z N N.{ *.*.",
"N i.z.i.z.l.l.i.( B N y w u a G z.D.$.$.Q N K K $.*.z.K K.h.R p _ T.z.z.a.$.$.p i r r e p h.S p a } K.K.L.q.f V Z.L.Y B R S h.T ",
"Z { $.c } v.a.B k j i 6 6 u e u p a a M u u K z.D.h.$._ V.' c p D z.z.$.D a p u r r t 6 e B S x a o.z.$.( l j V i.v.' N c h.h.| ",
"D { d.o.| T._ B l 9 t # 5 6 4 e y p M u 4 e a *.h.D B p N a w y p _ ( p p e 6 5 p w 4 @ e M a z b N.*.D N s d k ( u.N N K.Z.Y B ",
"@ w w u c 7.t z t w 6 @ 5 6 , ; 6 w w @ # 4 # 4 y e p y ; ; < , 7 y y s 6 w > 5 7 = @ @ p p t d v b b 1.;.:.:.:.9 d 8 9 b b i r ",
"5 w e w h 0 1 7 w u w u m t.2.9 k t w @ O X O @ 6 a M.m 7 r 0 2 , t d d c v 2 t j r m t.M.y.I h r r s -.:.:.,.=.< 1 ; j l 0 j j ",
"a R x.( o.I r r S o.*.C.K.K.j.q.N x a i + O   4 ` T.V.*.c a d 1 k T | T i.( V } i.Y h.a.v.d.o.a i i a d =.,.=.< 7 7 p o.7.^ o._ ",
"D A.Z.J.J n y u D *.z.D.V.h.$.p.( c B N 6 4 O w *.T.K.o.$.D x t D $.a.a.h.i.u.z.h.$.| T _ Y N c M a N k s 2 < > 6 p N *.N.V._ _ ",
"B i.L.V.R.C.a M { D.z.z.x.D.R Z _ o._ N w 6 4 w N.K.o.*.J.a.R Z $.z.v.h.v.v.l.v.v.i.L.R.B N N N N N $.} t 7 - 6 i B o.Y.V.h.$.R.",
"D h.K.N.D.K.D.K.K.N.*.v.z.N.o.$.N.d.c D a a 6 u N.D.z.D.N.z.*.o.a.z.z.z.v.z.l.l.a.a.K.J.} ] a.{ K K *.] B t > t ( v.E.P.K.x.v.J.",
"Z *.*.N.*.N.L.T.K.D.N.z.z.z.h.D.N.' a D } J y a D.D.N.D.v.z.N.h.z.z.z.z.a.V.V.z.v.D.v.v.v.a.D.} ] K ] | K i 6 n K.E.W.E.P.v.z.v.",
"B D.N.h.S S z.D.v.D.N.*.z.z.z.z.$.| N B d.c u e *.z.z.z.*.z.*.z.l.z.l.l.B } l.l.v.J.z.l.l.v.v.} *.*.G.G.| p ; a V.P.E.P.v.v.l.l.",
"D V.*.D p S W | z.*.z.z.z.z.z.z.h.h.d.d.d.S p e | z.*.z.*.o.$.N.z.z.z.a.$.B N Z | a.z.z.l.v.l.x.l.v.P.G.h.Z 6 a $.i.J.v.j.x.| | ",
"D x.Y c B $._ { z.h.a.z.z.z.N.z.h.x.V.K.d._ x p o.h.$.h.$.{ $.K.z.l.a.a.V._ a p B } v.a.z.z.v.V.l.v.*.N.N.} y a T D *.*.*.*.S J ",
"Y Z.T B | J.J.D.P.D.z.z.z.D.D.z.h.h.h.v.*.V.' S *.o.{ $.z.*.z.z.l.l.v.h.z.i.B N B i.v.v.v.l.l.v.v.*.D.*.z._ w e a c h.Q N.} S Q ",
"T $.K.} T K.l.v.z.l.z.*.$.{ { h.h.0.e.z.D.h.Y p M p a a o.$.o.*.} a.v.v.z.z.} *.| l.l.l.l.a.a.a.*.D.N.K.N.} w 4 x C.T.*.N.J M *.",
"{ $.V.| V v.j.j.*.l.$.*.Q S d.D.h.e.N *.a.T D r a S Q N B D n } V.J.J.v.z.z.z.z.a.v.l.l.l.v.v.v.v.K.T.N.N.Z 4 5 ^ R.N.*.*.a M *.",
"K B K V.h.$.8.2.( v.z.K p M.L.z.e.I | h.S u p 6 u u a Q N W W | z.z.z.*.*.*.*.z.a.z.z.l.*.z.*.z.*.v.v.*.' e w u K *.D J p p M M ",
"B B N.T.$.{ 5.3.p.J.z.} R D.z.*.r.T o.o.a u t 5 u u Q $.Q J K *.z.z.*.{ [ K K z.D.v.l.z.o.*.z.z.v.v.v.v.' a e a { $.Z a p u a a ",
"$.D d.$.b o.K T u.u.( V p N N p D Y B o.N M e 3 4 e J ' u a M e y a _ k M N { { I } *.$.J y e D h.*.*.*.N.J u S $.*.a p w u M M ",
"S p N v 9 v N Y e.3.q q d p u p a h i c a a : + 4 w a a u e p e u p i i z c V D l B $.U p u a v U _ M W o.Z w i R { a w w u M p ",
"w y 6 5 ; 5 7 q >.,.,.:.2 6 w r 8 > @ @ 6 6 5 @ 5 7 s w 8 5 6 7 r , r 2 -.2 0 9 :.9 l 0 2 : r , 9 r ; # 5 5 + 4 r d 1 , ; 6 t ; ",
"^ i e w i t 5 1 =.-.:.=., x k.' x ; ; 3 5 y P ^ C.y.y.C.g d n i , t r , -.:.2 ; 0 , 0 :.> ; w , < = X @ 4 4 4 e c z 2 j r e a 5 ",
"Z u t N B c 6 3 > < < > x C.D.N.D 6 6 n u u n _ u.o.| V.r.^ S u i M a t j :.> r i t , -.; t a e 6 6 6 5 6 5 e M } i.V T B B a a ",
"a y c | B a w 6 ; > > ; ` Y.D.*.o.i t B N p c D D D h.x.u.S u p N N M M M 0 : t M a w , @ T B N u e p p e 6 p B } v.T B B B N N ",
"a a a h.N N N p n x 5 w S D.H.K.N.N D _ N N N _ o.N.K.h.D p p N Z Z N K V 9 M a a u e ; w | $.B M N N B a e a Q v.P.L.v.T $.i.v.",
"p M a h.$.Z N Z x.( t e a N.K.H.K.K.$.T.o.a D h.Y.K.V.h.$.a N J V.V.n N N k M a u p 4 @ a $.*.N.T.G.W { N a K *.v.v.J.D.a.v.v.v.",
"p N S R.V.N.N R V.v.R t a *.D.N.D.D.h.D.A.Z D V.L.z.z.$.h.J S } K.V.$.B { K M M a a 5 + M | h.N.L.G.*.$.D a D $.v.x.a.l.v.a.x.a.",
"M Z *.R.v.V.R i.x.h.$.c a o.*.*.*.N.N.z.h._ D h.z.z.z.$.K.*.Q h.N.V.z.h.{ K D *.M p # @ D z.V._ *.*.v.z.Z p a $.l.u.v.x.v.v.v.v.",
"N | C.L.z.z.*.z.N.h.*.a u J *.N.*.D.C.z.*.Q D *.N.D.*.l.K.N.} N.V.V.V.C.| T h.A.R p @ @ ' V.d.Z { z.V.N.n p N $.a.*.N.$.*.z.z.D.",
"S J.N.h.z.z.z.v.V.} ^ u w S *.D.T.*.*.*.*.D _ N.N.D.*.} / $.h.l.N.h.h.h.h.$.K.V.K.R r @ ' } a Z { K.C._ a B h.V.l.V.R N Q _ $.*.",
"_ z.z.h.v.z.z.l.*.Z S y 6 a } l.h.} } } { D K K.N.*.W a a S $.l.z.h.$.a.h.*.P _ N.o.p 5 o.D N K h.V.K.*.N _ D.D.V.l.c p D D o.i.",
"_ h.h.D $.l.z.l.J a a e y a S o.Z S D K N N S *.*.*.} a c a J h.h.$.*.h.$.h.c a *.J u 5 _ N N B D.*.V.h.M.K.z.*.a.$.a a S B V.K.",
"N X.} p D $.K.$.D N M u u N B V N i V B B N a a D _ o.Q { N _ o.{ | d.| d.h.K T *.S M 6 N B N Z h.{ *.h.*.h.| { o.J c D | B L.z.",
"S K M e e S h.K N a u 6 e p M t d j 0 k N B D N a N u.U.D c D a N S B | | _ B { N p M w a a B { *._ o.{ K W } } D N J *.{ a _ h.",
"W B N u y u D Z a i y 5 t p a r r q j t t N B N B _ h.V.S x d.Z D N c k { C B { N S a 5 M a N $.K W D K { { K K N N V.Y.[ i ' *.",
"e a a e 5 5 6 6 w 6 = + $ e w > ; w w 5 y : w i i m ` U w y a i e t t t t t 7 6 u p 4 @ 6 p N j i t M a a p u e t a a k e 6 a p ",
"5 e u 7 5 3 5 5 > 7 + O + 5 5 = 5 5 @ 5 5 @ @ 5 5 7 d w w 6 w 7 1 , ; @ , 1 ; + # # X @ @ 7 9 1 5 1 r w : ; # ; , 6 r 1 5 1 r : ",
"6 6 u S i t a p 7 u ` R i y e u S u 6 p y w O # U U k r.u.R u u n d.u.i e r w t S { Q S u N j w a P d.R e @ # n N.h.Y d y 1 k D ",
"y p M.h._ T B N n R N.D.p.' S S *.o.Z p N a # 4 a S S 0.e.| a Z _ S T _ ( c p N o.*.$.h.*.N.( k Z ' K.i.c 6 5 n N.h.i.c S x ' *.",
"7 M.V.8.$.$._ ( $.h.N.N.N.r.R $.a.{ _ p D N y @ y p } r.c D } h.o.N K T $.N Y u.$.h.*.z.N.N.0.Y Y.A.d.r.( a 6 i D { h.{ $.| 7.| ",
"7 P r.>.U z.D o.j.a.h.0.u.' y.*.i.( B U { N y 6 5 a _ h.Y | $.o._ D { x.i.o.b V *.( a.x.x.i.7.U V.I N V _ c r w c ( R $.} N V 0.",
"8 g 6.2 l $.d.u.8.U r.2.v l V a.Z.V T i.K D p w 6 d b d.Y l e.b v d.j.q.b a.4.g v j r.j.i.z 0.| y.d k Y B t , 1 d x N r.v z j ;.",
"=.2 s d q 3.q.5.;.g l ;.9 q C z.n.2.( z.j t i r 2 2 h ( g 0 V l g e.q.>.-.b ;.-.9 z V } e.-.z u.2.q Z ( h : ; < 1 s x b s s s :.",
"2 2 8 b 9 ;.g -.=.2 1 9 0 2.( i.7.q V r.s 1 w j -.2 1 B 0 d V g 9 g -.=.0 r 9 0 0 z c N 1.-.d l :.s N V 9 > - < 1 s s l 2 1 -.-.",
"1 -.0 Z 1 -.2 =.2 1 > , -.q b e.1.9 v l 9 < ; d =.1 , x =.j 7.2 2 2 2 =.< , , 2 =.d i y =.=.0 2 =.8 x l 2 > - < 2 1 1 0 2 1 =.1 ",
"2 -.-.z 2 1 < < < 1 > > < 1 0 -.2 < r 0 1 > = < 1 < 1 s 1 d 2.2 1 < < 2 2 1 > 2 1 < 5 < 2 2 < 2 > 7 7 1 1 - - < 2 0 < 2 s 1 1 < ",
"2 < =.1 1 < - - > r , > - - -.2 < - < - < - * < < < < 1 1 8 2 < < < < < 9 r > > 2 2 < > - < < < - > < < < = * - 1 1 < < 1 < p h ",
"< < =.-.2 =.= - > 7 1 = - - 2 1 < - < o - = % < < > < < < > < > < < < < 2 9 > & 2 < < - - 2 < < = < > - - & * - < < < - < > U d ",
"o > < 2 2 - - & & - < - = 3 > > - = - = - % o & - - < = = > < - - > > > 2 > & - 5 ; = & - > < < - = = - - o o * - - - - - - 5 < ",
". < < > - - > - = = = = - ; < > = % = = - o . o & & < & % - & % & - > > < > & - > > = = - - - < = & & = = o . = - - - & * - = < ",
"* * & & & o = * & - = o & - = = = % o = % . % = & o & . = % % & = = = < < = o & - - = o = = = = * * % & * . o * * & o * * o = = ",
". & - - - = & = - - = + = - = & = = - = o o = - = & % o = & % - - - = & < & & > - > - - - - = - * * * * . o * * = = & = & & - = "
};
